<svg width="30" height="30" viewBox="0 0 30 30" fill="none" xmlns="http://www.w3.org/2000/svg">
<path d="M11.4497 14.5255C11.4122 14.5255 11.3872 14.5255 11.3497 14.5255C11.2872 14.513 11.1997 14.513 11.1247 14.5255C7.49971 14.413 4.76221 11.563 4.76221 8.05049C4.76221 4.47549 7.67471 1.56299 11.2497 1.56299C14.8247 1.56299 17.7372 4.47549 17.7372 8.05049C17.7247 11.563 14.9747 14.413 11.4872 14.5255C11.4747 14.5255 11.4622 14.5255 11.4497 14.5255ZM11.2497 3.43799C8.71221 3.43799 6.63721 5.51299 6.63721 8.05049C6.63721 10.5505 8.58721 12.563 11.0747 12.6505C11.1497 12.638 11.3122 12.638 11.4747 12.6505C13.9247 12.538 15.8497 10.5255 15.8622 8.05049C15.8622 5.51299 13.7872 3.43799 11.2497 3.43799Z" fill="#888888"/>
<path d="M20.6745 14.687C20.637 14.687 20.5995 14.687 20.562 14.6745C20.0495 14.7245 19.5245 14.362 19.4745 13.8495C19.4245 13.337 19.737 12.8745 20.2495 12.812C20.3995 12.7995 20.562 12.7995 20.6995 12.7995C22.5245 12.6995 23.9495 11.1995 23.9495 9.36201C23.9495 7.46201 22.412 5.92451 20.512 5.92451C19.9995 5.93701 19.5745 5.51201 19.5745 4.99951C19.5745 4.48701 19.9995 4.06201 20.512 4.06201C23.437 4.06201 25.8245 6.44951 25.8245 9.37451C25.8245 12.2495 23.5745 14.5745 20.712 14.687C20.6995 14.687 20.687 14.687 20.6745 14.687Z" fill="#888888"/>
<path d="M11.462 28.187C9.01201 28.187 6.54951 27.562 4.68701 26.312C2.94951 25.162 1.99951 23.587 1.99951 21.8745C1.99951 20.162 2.94951 18.5745 4.68701 17.412C8.43701 14.9245 14.512 14.9245 18.237 17.412C19.962 18.562 20.9245 20.137 20.9245 21.8495C20.9245 23.562 19.9745 25.1495 18.237 26.312C16.362 27.562 13.912 28.187 11.462 28.187ZM5.72451 18.987C4.52451 19.787 3.87451 20.812 3.87451 21.887C3.87451 22.9495 4.53701 23.9745 5.72451 24.762C8.83701 26.8495 14.087 26.8495 17.1995 24.762C18.3995 23.962 19.0495 22.937 19.0495 21.862C19.0495 20.7995 18.387 19.7745 17.1995 18.987C14.087 16.912 8.83701 16.912 5.72451 18.987Z" fill="#888888"/>
<path d="M22.9247 25.9375C22.4872 25.9375 22.0997 25.6375 22.0122 25.1875C21.9122 24.675 22.2372 24.1875 22.7372 24.075C23.5247 23.9125 24.2497 23.6 24.8122 23.1625C25.5247 22.625 25.9122 21.95 25.9122 21.2375C25.9122 20.525 25.5247 19.85 24.8247 19.325C24.2747 18.9 23.5872 18.6 22.7747 18.4125C22.2747 18.3 21.9497 17.8 22.0622 17.2875C22.1747 16.7875 22.6747 16.4625 23.1872 16.575C24.2622 16.8125 25.1997 17.2375 25.9622 17.825C27.1247 18.7 27.7872 19.9375 27.7872 21.2375C27.7872 22.5375 27.1122 23.775 25.9497 24.6625C25.1747 25.2625 24.1997 25.7 23.1247 25.9125C23.0497 25.9375 22.9872 25.9375 22.9247 25.9375Z" fill="#888888"/>
</svg>
