<svg width="30" height="30" viewBox="0 0 30 30" fill="none" xmlns="http://www.w3.org/2000/svg">
<path d="M15 19.6875C12.4125 19.6875 10.3125 17.5875 10.3125 15C10.3125 12.4125 12.4125 10.3125 15 10.3125C17.5875 10.3125 19.6875 12.4125 19.6875 15C19.6875 17.5875 17.5875 19.6875 15 19.6875ZM15 12.1875C13.45 12.1875 12.1875 13.45 12.1875 15C12.1875 16.55 13.45 17.8125 15 17.8125C16.55 17.8125 17.8125 16.55 17.8125 15C17.8125 13.45 16.55 12.1875 15 12.1875Z" fill="#8B8B8B"/>
<path d="M19.0125 27.7374C18.75 27.7374 18.4875 27.6999 18.225 27.6374C17.45 27.4249 16.8 26.9374 16.3875 26.2499L16.2375 25.9999C15.5 24.7249 14.4875 24.7249 13.75 25.9999L13.6125 26.2374C13.2 26.9374 12.55 27.4374 11.775 27.6374C10.9875 27.8499 10.175 27.7374 9.4875 27.3249L7.3375 26.0874C6.575 25.6499 6.025 24.9374 5.7875 24.0749C5.5625 23.2124 5.675 22.3249 6.1125 21.5624C6.475 20.9249 6.575 20.3499 6.3625 19.9874C6.15 19.6249 5.6125 19.4124 4.875 19.4124C3.05 19.4124 1.5625 17.9249 1.5625 16.0999V13.8999C1.5625 12.0749 3.05 10.5874 4.875 10.5874C5.6125 10.5874 6.15 10.3749 6.3625 10.0124C6.575 9.64987 6.4875 9.07487 6.1125 8.43737C5.675 7.67487 5.5625 6.77487 5.7875 5.92487C6.0125 5.06237 6.5625 4.34987 7.3375 3.91237L9.5 2.67487C10.9125 1.83737 12.775 2.32487 13.625 3.76237L13.775 4.01237C14.5125 5.28737 15.525 5.28737 16.2625 4.01237L16.4 3.77487C17.25 2.32487 19.1125 1.83737 20.5375 2.68737L22.6875 3.92487C23.45 4.36237 24 5.07487 24.2375 5.93737C24.4625 6.79987 24.35 7.68737 23.9125 8.44987C23.55 9.08737 23.45 9.66237 23.6625 10.0249C23.875 10.3874 24.4125 10.5999 25.15 10.5999C26.975 10.5999 28.4625 12.0874 28.4625 13.9124V16.1124C28.4625 17.9374 26.975 19.4249 25.15 19.4249C24.4125 19.4249 23.875 19.6374 23.6625 19.9999C23.45 20.3624 23.5375 20.9374 23.9125 21.5749C24.35 22.3374 24.475 23.2374 24.2375 24.0874C24.0125 24.9499 23.4625 25.6624 22.6875 26.0999L20.525 27.3374C20.05 27.5999 19.5375 27.7374 19.0125 27.7374ZM15 23.1124C16.1125 23.1124 17.15 23.8124 17.8625 25.0499L18 25.2874C18.15 25.5499 18.4 25.7374 18.7 25.8124C19 25.8874 19.3 25.8499 19.55 25.6999L21.7125 24.4499C22.0375 24.2624 22.2875 23.9499 22.3875 23.5749C22.4875 23.1999 22.4375 22.8124 22.25 22.4874C21.5375 21.2624 21.45 19.9999 22 19.0374C22.55 18.0749 23.6875 17.5249 25.1125 17.5249C25.9125 17.5249 26.55 16.8874 26.55 16.0874V13.8874C26.55 13.0999 25.9125 12.4499 25.1125 12.4499C23.6875 12.4499 22.55 11.8999 22 10.9374C21.45 9.97487 21.5375 8.71237 22.25 7.48737C22.4375 7.16237 22.4875 6.77487 22.3875 6.39987C22.2875 6.02487 22.05 5.72487 21.725 5.52487L19.5625 4.28737C19.025 3.96237 18.3125 4.14987 17.9875 4.69987L17.85 4.93737C17.1375 6.17487 16.1 6.87487 14.9875 6.87487C13.875 6.87487 12.8375 6.17487 12.125 4.93737L11.9875 4.68737C11.675 4.16237 10.975 3.97487 10.4375 4.28737L8.275 5.53737C7.95 5.72487 7.7 6.03737 7.6 6.41237C7.5 6.78737 7.55 7.17487 7.7375 7.49987C8.45 8.72487 8.5375 9.98737 7.9875 10.9499C7.4375 11.9124 6.3 12.4624 4.875 12.4624C4.075 12.4624 3.4375 13.0999 3.4375 13.8999V16.0999C3.4375 16.8874 4.075 17.5374 4.875 17.5374C6.3 17.5374 7.4375 18.0874 7.9875 19.0499C8.5375 20.0124 8.45 21.2749 7.7375 22.4999C7.55 22.8249 7.5 23.2124 7.6 23.5874C7.7 23.9624 7.9375 24.2624 8.2625 24.4624L10.425 25.6999C10.6875 25.8624 11 25.8999 11.2875 25.8249C11.5875 25.7499 11.8375 25.5499 12 25.2874L12.1375 25.0499C12.85 23.8249 13.8875 23.1124 15 23.1124Z" fill="#8B8B8B"/>
</svg>
