<svg width="30" height="30" viewBox="0 0 30 30" fill="none" xmlns="http://www.w3.org/2000/svg">
<path d="M13.75 28.4375H11.25C4.4625 28.4375 1.5625 25.5375 1.5625 18.75V11.25C1.5625 4.4625 4.4625 1.5625 11.25 1.5625H18.75C25.5375 1.5625 28.4375 4.4625 28.4375 11.25V12.5C28.4375 13.0125 28.0125 13.4375 27.5 13.4375C26.9875 13.4375 26.5625 13.0125 26.5625 12.5V11.25C26.5625 5.4875 24.5125 3.4375 18.75 3.4375H11.25C5.4875 3.4375 3.4375 5.4875 3.4375 11.25V18.75C3.4375 24.5125 5.4875 26.5625 11.25 26.5625H13.75C14.2625 26.5625 14.6875 26.9875 14.6875 27.5C14.6875 28.0125 14.2625 28.4375 13.75 28.4375Z" fill="white"/>
<path d="M19.0876 28.4377C17.5751 28.4377 16.3501 27.2126 16.3501 25.7001C16.3501 24.1876 17.5751 22.9626 19.0876 22.9626C20.6001 22.9626 21.8251 24.1876 21.8251 25.7001C21.8251 27.2126 20.6001 28.4377 19.0876 28.4377ZM19.0876 24.8251C18.6126 24.8251 18.2251 25.2126 18.2251 25.6876C18.2251 26.1626 18.6126 26.5501 19.0876 26.5501C19.5626 26.5501 19.9501 26.1626 19.9501 25.6876C19.9501 25.2126 19.5626 24.8251 19.0876 24.8251Z" fill="#273DFF"/>
<path d="M20.8874 26.6375C20.3749 26.6375 19.95 26.2125 19.95 25.7V18.425C19.95 17.2875 20.65 16.3625 21.75 16.075L25.3625 15.0875C26.4875 14.775 27.1874 15.075 27.5875 15.375C27.9749 15.675 28.4375 16.275 28.4375 17.4375V24.4875C28.4375 25 28.0125 25.425 27.5 25.425C26.9875 25.425 26.5625 25 26.5625 24.4875V17.4375C26.5625 17.0375 26.4749 16.8875 26.4374 16.8625C26.4 16.8375 26.225 16.7875 25.8375 16.8875L22.225 17.875C21.85 17.975 21.8125 18.2375 21.8125 18.425V25.7C21.825 26.2125 21.3999 26.6375 20.8874 26.6375Z" fill="#273DFF"/>
<path d="M25.7001 27.2376C24.1876 27.2376 22.9626 26.0126 22.9626 24.5001C22.9626 22.9876 24.1876 21.7626 25.7001 21.7626C27.2126 21.7626 28.4376 22.9876 28.4376 24.5001C28.4376 26.0126 27.2126 27.2376 25.7001 27.2376ZM25.7001 23.6251C25.2251 23.6251 24.8376 24.0126 24.8376 24.4876C24.8376 24.9626 25.2251 25.3501 25.7001 25.3501C26.1751 25.3501 26.5626 24.9626 26.5626 24.4876C26.5626 24.0126 26.1751 23.6251 25.7001 23.6251Z" fill="#273DFF"/>
<path d="M20.8876 21.4751C20.4751 21.4751 20.1001 21.2001 19.9876 20.7876C19.8501 20.2876 20.1501 19.7751 20.6501 19.6376L27.2626 17.8376C27.7626 17.7001 28.2751 18.0001 28.4126 18.5001C28.5501 19.0001 28.2501 19.5125 27.7501 19.65L21.1376 21.45C21.0501 21.4625 20.9626 21.4751 20.8876 21.4751Z" fill="#273DFF"/>
</svg>
