<svg width="30" height="30" viewBox="0 0 30 30" fill="none" xmlns="http://www.w3.org/2000/svg">
<path d="M13.75 28.4375H11.25C4.4625 28.4375 1.5625 25.5375 1.5625 18.75V11.25C1.5625 4.4625 4.4625 1.5625 11.25 1.5625H18.75C25.5375 1.5625 28.4375 4.4625 28.4375 11.25V12.5C28.4375 13.0125 28.0125 13.4375 27.5 13.4375C26.9875 13.4375 26.5625 13.0125 26.5625 12.5V11.25C26.5625 5.4875 24.5125 3.4375 18.75 3.4375H11.25C5.4875 3.4375 3.4375 5.4875 3.4375 11.25V18.75C3.4375 24.5125 5.4875 26.5625 11.25 26.5625H13.75C14.2625 26.5625 14.6875 26.9875 14.6875 27.5C14.6875 28.0125 14.2625 28.4375 13.75 28.4375Z" fill="#8B8B8B"/>
<path d="M19.0876 28.4379C17.5751 28.4379 16.3501 27.2129 16.3501 25.7004C16.3501 24.1879 17.5751 22.9629 19.0876 22.9629C20.6001 22.9629 21.8251 24.1879 21.8251 25.7004C21.8251 27.2129 20.6001 28.4379 19.0876 28.4379ZM19.0876 24.8254C18.6126 24.8254 18.2251 25.2129 18.2251 25.6879C18.2251 26.1629 18.6126 26.5504 19.0876 26.5504C19.5626 26.5504 19.9501 26.1629 19.9501 25.6879C19.9501 25.2129 19.5626 24.8254 19.0876 24.8254Z" fill="#8B8B8B"/>
<path d="M20.8877 26.6375C20.3752 26.6375 19.9502 26.2125 19.9502 25.7V18.425C19.9502 17.2875 20.6502 16.3625 21.7502 16.075L25.3627 15.0875C26.4877 14.775 27.1877 15.075 27.5877 15.375C27.9752 15.675 28.4377 16.275 28.4377 17.4375V24.4875C28.4377 25 28.0127 25.425 27.5002 25.425C26.9877 25.425 26.5627 25 26.5627 24.4875V17.4375C26.5627 17.0375 26.4752 16.8875 26.4377 16.8625C26.4002 16.8375 26.2252 16.7875 25.8377 16.8875L22.2252 17.875C21.8502 17.975 21.8127 18.2375 21.8127 18.425V25.7C21.8252 26.2125 21.4002 26.6375 20.8877 26.6375Z" fill="#8B8B8B"/>
<path d="M25.7004 27.2377C24.1879 27.2377 22.9629 26.0127 22.9629 24.5002C22.9629 22.9877 24.1879 21.7627 25.7004 21.7627C27.2129 21.7627 28.4379 22.9877 28.4379 24.5002C28.4379 26.0127 27.2129 27.2377 25.7004 27.2377ZM25.7004 23.6253C25.2254 23.6253 24.8379 24.0128 24.8379 24.4878C24.8379 24.9628 25.2254 25.3503 25.7004 25.3503C26.1754 25.3503 26.5629 24.9628 26.5629 24.4878C26.5629 24.0128 26.1754 23.6253 25.7004 23.6253Z" fill="#8B8B8B"/>
<path d="M20.8875 21.4751C20.475 21.4751 20.1 21.2001 19.9875 20.7876C19.85 20.2876 20.15 19.7751 20.65 19.6376L27.2625 17.8376C27.7625 17.7001 28.275 18.0001 28.4125 18.5001C28.55 19.0001 28.25 19.5125 27.75 19.65L21.1375 21.45C21.05 21.4625 20.9625 21.4751 20.8875 21.4751Z" fill="#8B8B8B"/>
</svg>
