<svg width="60" height="60" viewBox="0 0 60 60" fill="none" xmlns="http://www.w3.org/2000/svg">
<path d="M30 31.875C22.075 31.875 15.625 25.425 15.625 17.5C15.625 9.575 22.075 3.125 30 3.125C37.925 3.125 44.375 9.575 44.375 17.5C44.375 25.425 37.925 31.875 30 31.875ZM30 6.875C24.15 6.875 19.375 11.65 19.375 17.5C19.375 23.35 24.15 28.125 30 28.125C35.85 28.125 40.625 23.35 40.625 17.5C40.625 11.65 35.85 6.875 30 6.875Z" fill="#7B7B7B"/>
<path d="M51.4754 56.875C50.4504 56.875 49.6004 56.025 49.6004 55C49.6004 46.375 40.8004 39.375 30.0004 39.375C19.2004 39.375 10.4004 46.375 10.4004 55C10.4004 56.025 9.55039 56.875 8.52539 56.875C7.50039 56.875 6.65039 56.025 6.65039 55C6.65039 44.325 17.1254 35.625 30.0004 35.625C42.8754 35.625 53.3504 44.325 53.3504 55C53.3504 56.025 52.5004 56.875 51.4754 56.875Z" fill="#7B7B7B"/>
</svg>
