<svg width="30" height="30" viewBox="0 0 30 30" fill="none" xmlns="http://www.w3.org/2000/svg">
<path d="M6.4375 28.4375C5.925 28.4375 5.5 28.0125 5.5 27.5V2.5C5.5 1.9875 5.925 1.5625 6.4375 1.5625C6.95 1.5625 7.375 1.9875 7.375 2.5V27.5C7.375 28.0125 6.95 28.4375 6.4375 28.4375Z" fill="#8B8B8B"/>
<path d="M20.4375 20.9375H6.4375C5.925 20.9375 5.5 20.5125 5.5 20C5.5 19.4875 5.925 19.0625 6.4375 19.0625H20.4375C21.8 19.0625 22.4375 18.7 22.5625 18.3875C22.6875 18.075 22.5 17.375 21.525 16.4125L20.025 14.9125C19.4125 14.375 19.0375 13.5625 19 12.6625C18.9625 11.7125 19.3375 10.775 20.025 10.0875L21.525 8.5875C22.45 7.6625 22.7375 6.9125 22.6 6.5875C22.4625 6.2625 21.75 5.9375 20.4375 5.9375H6.4375C5.9125 5.9375 5.5 5.5125 5.5 5C5.5 4.4875 5.925 4.0625 6.4375 4.0625H20.4375C23.175 4.0625 24.05 5.2 24.3375 5.875C24.6125 6.55 24.8 7.975 22.85 9.925L21.35 11.425C21.0375 11.7375 20.8625 12.175 20.875 12.6125C20.8875 12.9875 21.0375 13.325 21.3 13.5625L22.85 15.1C24.7625 17.0125 24.575 18.4375 24.3 19.125C24.0125 19.7875 23.125 20.9375 20.4375 20.9375Z" fill="#8B8B8B"/>
</svg>
