<svg width="22" height="23" viewBox="0 0 22 23" fill="none" xmlns="http://www.w3.org/2000/svg">
<path d="M14.0604 8.81217C13.9982 9.21184 13.6248 9.48567 13.2251 9.42343C12.8254 9.3612 12.5516 8.9878 12.6125 8.58813C12.6747 8.18846 13.0481 7.91463 13.4478 7.97687C13.8474 8.0391 14.1213 8.4125 14.059 8.81217H14.0604Z" fill="#A0FF27"/>
<path d="M11.0289 10.8576C10.8533 10.6819 10.8533 10.3956 11.0289 10.22C11.2046 10.0444 11.4908 10.0444 11.6665 10.22C11.8421 10.3956 11.8421 10.6819 11.6665 10.8576C11.4908 11.0332 11.2046 11.0332 11.0289 10.8576Z" fill="#A0FF27"/>
<path d="M12.1948 12.4162C12.1948 12.1852 12.3829 11.9985 12.6125 11.9999C12.8434 11.9999 13.0301 12.188 13.0288 12.4175C13.0288 12.6485 12.8407 12.8352 12.6111 12.8352C12.3801 12.8352 12.1934 12.6471 12.1948 12.4175V12.4162Z" fill="#A0FF27"/>
<path d="M20.761 8.08059C20.761 7.739 21.039 7.46102 21.3819 7.46241C21.7235 7.46241 22.0015 7.74038 22.0001 8.08335C22.0001 8.42494 21.7221 8.70291 21.3792 8.70153C21.0376 8.70153 20.7596 8.42356 20.761 8.08197V8.08059Z" fill="#A0FF27"/>
<path d="M15.6716 0.618179C15.673 0.27659 15.9496 0 16.2926 0C16.6342 0 16.9121 0.277973 16.9108 0.620945C16.9108 0.962534 16.6328 1.24051 16.2898 1.23912C15.9482 1.23912 15.6703 0.961151 15.6716 0.619562V0.618179Z" fill="#A0FF27"/>
<path d="M5.65911 2.48794C6.12378 2.73963 6.29803 3.32047 6.04633 3.78515C5.79464 4.2512 5.2138 4.42407 4.74912 4.17237C4.28445 3.92068 4.1102 3.34122 4.3619 2.87516C4.61359 2.40911 5.19443 2.23624 5.65911 2.48794Z" fill="#A0FF27"/>
<path d="M5.17783 5.42254C5.27602 5.7503 5.08932 6.09604 4.76156 6.19284C4.4338 6.29103 4.08806 6.10434 3.99126 5.77658C3.89307 5.44882 4.07977 5.10308 4.40753 5.00627C4.73529 4.90808 5.08102 5.09478 5.17921 5.42254H5.17783Z" fill="#A0FF27"/>
<path d="M14.3011 2.05644C14.6095 1.74943 15.1087 1.74943 15.4157 2.05783C15.7227 2.36623 15.7227 2.86547 15.4143 3.17249C15.1059 3.4795 14.6067 3.4795 14.2997 3.1711C13.9927 2.8627 13.9927 2.36346 14.3011 2.05644Z" fill="#A0FF27"/>
<path d="M13.21 10.7691C13.5184 10.462 14.0176 10.462 14.3246 10.7704C14.6317 11.0788 14.6317 11.5781 14.3233 11.8851C14.0149 12.1921 13.5156 12.1921 13.2086 11.8837C12.9016 11.5753 12.9016 11.0761 13.21 10.7691Z" fill="#A0FF27"/>
<path d="M0 16.8679C0 19.8689 2.61654 22.52 5.90105 22.52C8.29494 22.52 10.4039 21.0084 11.3457 19.1456C11.3789 19.1193 11.4107 19.0903 11.4412 19.0585L13.3773 17.0352C13.3994 17.0117 13.4202 16.9882 13.4395 16.9633L14.6593 15.6868C14.7022 15.6426 14.7381 15.5942 14.7713 15.5444L19.129 11.1577C19.5287 10.74 19.4913 10.0568 19.046 9.63088C18.6007 9.20493 17.9175 9.1994 17.5178 9.61567L11.8809 15.3411C11.8381 15.3853 11.8021 15.4337 11.7689 15.4835L11.7136 15.5402C11.6735 15.395 11.6265 15.2526 11.5725 15.1115C11.9058 14.7174 10.4828 13.1284 10.0195 13.5128L9.978 13.452C9.88672 13.3635 9.77332 13.2501 9.69587 13.1947C9.67375 13.1795 9.65024 13.1629 9.62673 13.1463C9.8563 12.7674 7.99208 11.3098 7.59379 11.6445C7.544 11.632 7.49421 11.6209 7.44858 11.6099L7.64911 11.3997C7.69751 11.3651 7.74315 11.3264 7.78602 11.2821L9.72215 9.25887C9.74428 9.23536 9.7664 9.21046 9.78577 9.18419L13.1615 5.75032C13.5612 5.33267 13.5239 4.64949 13.0786 4.22354C12.6333 3.79759 11.9501 3.79206 11.5504 4.20833L7.52464 8.32261C7.50251 8.34612 7.48039 8.37101 7.46102 8.39729L6.9355 8.9477C6.8871 8.98228 6.84146 9.021 6.79859 9.06525L4.86246 11.0885C4.82512 11.1272 4.79331 11.1687 4.76427 11.2116L4.36459 11.6306C4.0313 11.715 3.70908 11.8242 3.40206 11.957L3.88471 9.97662C4.02162 9.41514 3.64823 8.8426 3.04941 8.69601C2.45197 8.5508 1.85592 8.88685 1.71901 9.44833L1.05519 12.1686C1.04689 12.2046 1.03998 12.2405 1.03583 12.2778C1.02477 12.3097 1.0137 12.3428 1.00541 12.3774L0.372014 14.976C0.132763 15.5651 0 16.2027 0 16.8692L0 16.8679ZM2.00251 17.6105C2.00251 15.785 3.48227 14.3053 5.30777 14.3053C7.13326 14.3053 8.61302 15.785 8.61302 17.6105C8.61302 19.436 7.13326 20.9158 5.30777 20.9158C3.48227 20.9158 2.00251 19.436 2.00251 17.6105Z" fill="#A0FF27"/>
</svg>
