<svg width="30" height="30" viewBox="0 0 30 30" fill="white" xmlns="http://www.w3.org/2000/svg">
<path d="M27.5 28.4375H2.5C1.9875 28.4375 1.5625 28.0125 1.5625 27.5C1.5625 26.9875 1.9875 26.5625 2.5 26.5625H27.5C28.0125 26.5625 28.4375 26.9875 28.4375 27.5C28.4375 28.0125 28.0125 28.4375 27.5 28.4375Z" fill="white"/>
<path d="M4.625 27.4999H2.75L2.8125 12.4624C2.8125 11.3999 3.3 10.4124 4.1375 9.76242L12.8875 2.9499C14.125 1.9874 15.8625 1.9874 17.1125 2.9499L25.8625 9.74991C26.6875 10.3999 27.1875 11.4124 27.1875 12.4624V27.4999H25.3125V12.4749C25.3125 11.9999 25.0875 11.5374 24.7125 11.2374L15.9625 4.43741C15.4 3.99991 14.6125 3.99991 14.0375 4.43741L5.28751 11.2499C4.91251 11.5374 4.6875 11.9999 4.6875 12.4749L4.625 27.4999Z" fill="white"/>
<path d="M21.25 28.4375H8.75C8.2375 28.4375 7.8125 28.0125 7.8125 27.5V15.625C7.8125 14.075 9.075 12.8125 10.625 12.8125H19.375C20.925 12.8125 22.1875 14.075 22.1875 15.625V27.5C22.1875 28.0125 21.7625 28.4375 21.25 28.4375ZM9.6875 26.5625H20.3125V15.625C20.3125 15.1125 19.8875 14.6875 19.375 14.6875H10.625C10.1125 14.6875 9.6875 15.1125 9.6875 15.625V26.5625Z" fill="white"/>
<path d="M12.5 23.125C11.9875 23.125 11.5625 22.7 11.5625 22.1875V20.3125C11.5625 19.8 11.9875 19.375 12.5 19.375C13.0125 19.375 13.4375 19.8 13.4375 20.3125V22.1875C13.4375 22.7 13.0125 23.125 12.5 23.125Z" fill="white"/>
<path d="M16.875 10.3125H13.125C12.6125 10.3125 12.1875 9.8875 12.1875 9.375C12.1875 8.8625 12.6125 8.4375 13.125 8.4375H16.875C17.3875 8.4375 17.8125 8.8625 17.8125 9.375C17.8125 9.8875 17.3875 10.3125 16.875 10.3125Z" fill="white"/>
</svg>
