<svg width="30" height="30" viewBox="0 0 30 30" fill="none" xmlns="http://www.w3.org/2000/svg">
<path d="M12.6374 22.6876H7.8999C7.3874 22.6876 6.9624 22.2626 6.9624 21.7501V15.3501C6.9624 14.0501 8.02488 12.9875 9.32488 12.9875H12.6374C13.1499 12.9875 13.5749 13.4125 13.5749 13.925V21.7375C13.5749 22.2625 13.1499 22.6876 12.6374 22.6876ZM8.8374 20.8126H11.6999V14.8751H9.32488C9.06238 14.8751 8.8374 15.0875 8.8374 15.3625V20.8126Z" fill="#888888"/>
<path d="M17.3625 22.6876H12.625C12.1125 22.6876 11.6875 22.2626 11.6875 21.7501V9.67502C11.6875 8.37502 12.75 7.3125 14.05 7.3125H15.95C17.25 7.3125 18.3125 8.37502 18.3125 9.67502V21.7501C18.3 22.2626 17.8875 22.6876 17.3625 22.6876ZM13.575 20.8126H16.4375V9.67502C16.4375 9.41252 16.225 9.1875 15.95 9.1875H14.05C13.7875 9.1875 13.5625 9.40002 13.5625 9.67502V20.8126H13.575Z" fill="#888888"/>
<path d="M22.1003 22.6876H17.3628C16.8503 22.6876 16.4253 22.2626 16.4253 21.7501V16.0625C16.4253 15.55 16.8503 15.125 17.3628 15.125H20.6753C21.9753 15.125 23.0378 16.1875 23.0378 17.4875V21.7501C23.0378 22.2626 22.6253 22.6876 22.1003 22.6876ZM18.3003 20.8126H21.1628V17.4875C21.1628 17.225 20.9503 17 20.6753 17H18.3003V20.8126Z" fill="#888888"/>
<path d="M18.75 28.4375H11.25C4.4625 28.4375 1.5625 25.5375 1.5625 18.75V11.25C1.5625 4.4625 4.4625 1.5625 11.25 1.5625H18.75C25.5375 1.5625 28.4375 4.4625 28.4375 11.25V18.75C28.4375 25.5375 25.5375 28.4375 18.75 28.4375ZM11.25 3.4375C5.4875 3.4375 3.4375 5.4875 3.4375 11.25V18.75C3.4375 24.5125 5.4875 26.5625 11.25 26.5625H18.75C24.5125 26.5625 26.5625 24.5125 26.5625 18.75V11.25C26.5625 5.4875 24.5125 3.4375 18.75 3.4375H11.25Z" fill="#888888"/>
</svg>
