<svg width="16" height="16" viewBox="0 0 16 16" fill="none" xmlns="http://www.w3.org/2000/svg">
<rect width="16" height="16" rx="8" fill="#28282F"/>
<path d="M8.58984 9.45703H7.08984L6.9375 3.51562H8.74219L8.58984 9.45703ZM6.86719 11.1211C6.86328 10.9453 6.9043 10.7832 6.99023 10.6348C7.08008 10.4824 7.20117 10.3633 7.35352 10.2773C7.50586 10.1914 7.67188 10.1484 7.85156 10.1484C8.02344 10.1484 8.18359 10.1914 8.33203 10.2773C8.48047 10.3633 8.59961 10.4824 8.68945 10.6348C8.7793 10.7832 8.82422 10.9453 8.82422 11.1211C8.82422 11.3008 8.7793 11.4668 8.68945 11.6191C8.59961 11.7676 8.48047 11.8867 8.33203 11.9766C8.18359 12.0625 8.02344 12.1055 7.85156 12.1055C7.67188 12.1055 7.50586 12.0625 7.35352 11.9766C7.20117 11.8867 7.08008 11.7676 6.99023 11.6191C6.9043 11.4668 6.86328 11.3008 6.86719 11.1211Z" fill="white"/>
</svg>
