<svg width="40" height="40" viewBox="0 0 40 40" fill="none" xmlns="http://www.w3.org/2000/svg">
<path d="M28.7335 37.9166H11.2668C6.60013 37.9166 3.63346 35.1333 3.36679 30.4833L2.50013 16.7333C2.36679 14.65 3.08346 12.65 4.51679 11.1333C5.93346 9.61665 7.93346 8.74998 10.0001 8.74998C10.5335 8.74998 11.0501 8.43331 11.3001 7.93331L12.5001 5.54998C13.4835 3.59998 15.9501 2.08331 18.1001 2.08331H21.9168C24.0668 2.08331 26.5168 3.59998 27.5001 5.53331L28.7001 7.96665C28.9501 8.43331 29.4501 8.74998 30.0001 8.74998C32.0668 8.74998 34.0668 9.61665 35.4835 11.1333C36.9168 12.6666 37.6335 14.65 37.5001 16.7333L36.6335 30.5C36.3335 35.2166 33.4501 37.9166 28.7335 37.9166ZM18.1001 4.58331C16.8668 4.58331 15.3001 5.54998 14.7335 6.66665L13.5335 9.06665C12.8335 10.4166 11.4835 11.25 10.0001 11.25C8.60013 11.25 7.30013 11.8166 6.33346 12.8333C5.38346 13.85 4.90013 15.1833 5.00013 16.5666L5.86679 30.3333C6.06679 33.7 7.88346 35.4166 11.2668 35.4166H28.7335C32.1001 35.4166 33.9168 33.7 34.1335 30.3333L35.0001 16.5666C35.0835 15.1833 34.6168 13.85 33.6668 12.8333C32.7001 11.8166 31.4001 11.25 30.0001 11.25C28.5168 11.25 27.1668 10.4166 26.4668 9.09998L25.2501 6.66665C24.7001 5.56665 23.1335 4.59998 21.9001 4.59998H18.1001V4.58331Z" fill="#C6C6C6"/>
<path d="M22.5 14.5833H17.5C16.8167 14.5833 16.25 14.0166 16.25 13.3333C16.25 12.65 16.8167 12.0833 17.5 12.0833H22.5C23.1833 12.0833 23.75 12.65 23.75 13.3333C23.75 14.0166 23.1833 14.5833 22.5 14.5833Z" fill="#C6C6C6"/>
<path d="M20.0002 31.25C16.3168 31.25 13.3335 28.2667 13.3335 24.5834C13.3335 20.9 16.3168 17.9167 20.0002 17.9167C23.6835 17.9167 26.6668 20.9 26.6668 24.5834C26.6668 28.2667 23.6835 31.25 20.0002 31.25ZM20.0002 20.4167C17.7002 20.4167 15.8335 22.2834 15.8335 24.5834C15.8335 26.8834 17.7002 28.75 20.0002 28.75C22.3002 28.75 24.1668 26.8834 24.1668 24.5834C24.1668 22.2834 22.3002 20.4167 20.0002 20.4167Z" fill="#C6C6C6"/>
</svg>
