<svg width="30" height="30" viewBox="0 0 30 30" fill="#FFFFFF" xmlns="http://www.w3.org/2000/svg">
<path d="M19.7625 25.225C19.4375 25.225 19.1 25.2125 18.7375 25.175C18.0875 25.125 17.35 25 16.5875 24.8125L14.4875 24.3125C8.72503 22.95 6.83753 19.9 8.18753 14.15L9.41253 8.91252C9.68753 7.72502 10.0125 6.76252 10.4125 5.96252C12.5625 1.52502 16.675 1.92502 19.6 2.61252L21.6875 3.10002C24.6125 3.78752 26.4625 4.87502 27.5 6.53752C28.525 8.20002 28.6875 10.3375 28 13.2625L26.775 18.4875C25.7 23.0625 23.4625 25.225 19.7625 25.225ZM16.4 4.06252C14.3125 4.06252 12.9875 4.92502 12.1 6.77502C11.775 7.45002 11.4875 8.28752 11.2375 9.33752L10.0125 14.575C8.90003 19.3 10.1875 21.3625 14.9125 22.4875L17.0125 22.9875C17.6875 23.15 18.325 23.25 18.9 23.3C22.3 23.6375 23.9875 22.15 24.9375 18.0625L26.1625 12.8375C26.725 10.425 26.65 8.73752 25.9 7.52502C25.15 6.31252 23.675 5.48752 21.25 4.92502L19.1625 4.43752C18.125 4.18752 17.2 4.06252 16.4 4.06252Z" fill="#FFFFFF"/>
<path d="M10.4125 27.8125C7.2 27.8125 5.15 25.8875 3.8375 21.825L2.2375 16.8875C0.462503 11.3875 2.05 8.28747 7.525 6.51247L9.5 5.87497C10.15 5.67497 10.6375 5.53747 11.075 5.46247C11.4375 5.38747 11.7875 5.52497 12 5.81247C12.2125 6.09997 12.25 6.47497 12.1 6.79997C11.775 7.46247 11.4875 8.29997 11.25 9.34997L10.025 14.5875C8.9125 19.3125 10.2 21.375 14.925 22.5L17.025 23C17.7 23.1625 18.3375 23.2625 18.9125 23.3125C19.3125 23.35 19.6375 23.625 19.75 24.0125C19.85 24.4 19.7 24.8 19.375 25.025C18.55 25.5875 17.5125 26.0625 16.2 26.4875L14.225 27.1375C12.7875 27.5875 11.5375 27.8125 10.4125 27.8125ZM9.725 7.77497L8.1125 8.29997C3.65 9.73747 2.5875 11.8375 4.025 16.3125L5.625 21.25C7.075 25.7125 9.175 26.7875 13.6375 25.35L15.6125 24.7C15.6875 24.675 15.75 24.65 15.825 24.625L14.5 24.3125C8.7375 22.95 6.85 19.9 8.2 14.15L9.425 8.91247C9.5125 8.51247 9.6125 8.12497 9.725 7.77497Z" fill="#FFFFFF"/>
<path d="M21.8625 13.1375C21.7875 13.1375 21.7125 13.125 21.625 13.1125L15.5625 11.575C15.0625 11.45 14.7625 10.9375 14.8875 10.4375C15.0125 9.93753 15.525 9.63753 16.025 9.76253L22.0875 11.3C22.5875 11.425 22.8875 11.9375 22.7625 12.4375C22.6625 12.85 22.275 13.1375 21.8625 13.1375Z" fill="#FFFFFF"/>
<path d="M18.2 17.3625C18.125 17.3625 18.05 17.35 17.9625 17.3375L14.325 16.4125C13.825 16.2875 13.525 15.775 13.65 15.275C13.775 14.775 14.2875 14.475 14.7875 14.6L18.425 15.525C18.925 15.65 19.225 16.1625 19.1 16.6625C19 17.0875 18.625 17.3625 18.2 17.3625Z" fill="#FFFFFF"/>
</svg>
