<svg width="40" height="40" viewBox="0 0 40 40" fill="none" xmlns="http://www.w3.org/2000/svg">
<rect width="40" height="40" rx="6" fill="#1977F3"/>
<g clip-path="url(#clip0_1_8501)">
<path d="M20 39.576C31.0457 39.576 40 30.7166 40 19.788C40 8.85938 31.0457 0 20 0C8.9543 0 0 8.85938 0 19.788C0 30.7166 8.9543 39.576 20 39.576Z" fill="#1977F3"/>
<path d="M16.6061 40.0001H22.9599V25.8658H28.0631L28.8833 20.2828C28.8833 20.2828 28.9989 20.2121 28.4155 20.2121H22.9628V15.0276C22.9628 15.0276 23.2516 13.1449 25.7555 13.1449H28.7389L28.6898 8.22622C28.6898 8.22622 26.001 7.34141 21.975 7.91809C21.975 7.91809 19.5924 8.11314 17.7642 10.4142C17.7642 10.4142 16.7303 11.3753 16.609 13.4955V20.2121H11.6992V25.8658H16.609V40.0001H16.6061Z" fill="white"/>
</g>
<defs>
<clipPath id="clip0_1_8501">
<rect width="40" height="40" fill="white"/>
</clipPath>
</defs>
</svg>
