<svg width="30" height="30" viewBox="0 0 30 30" fill="#FFFFFF" xmlns="http://www.w3.org/2000/svg">
<path d="M13.55 16.925H11.675C10.2375 16.925 9.075 15.725 9.075 14.2375C9.075 13.725 9.5 13.3 10.0125 13.3C10.525 13.3 10.95 13.725 10.95 14.2375C10.95 14.6875 11.275 15.05 11.675 15.05H13.55C13.8375 15.05 14.0625 14.7875 14.0625 14.4625C14.0625 14.025 13.9875 14 13.7 13.9L10.6875 12.85C9.6 12.475 9.0625 11.7125 9.0625 10.525C9.0625 9.175 10.1375 8.0625 11.45 8.0625H13.325C14.7625 8.0625 15.925 9.2625 15.925 10.75C15.925 11.2625 15.5 11.6875 14.9875 11.6875C14.475 11.6875 14.05 11.2625 14.05 10.75C14.05 10.3 13.725 9.9375 13.325 9.9375H11.45C11.1625 9.9375 10.9375 10.2 10.9375 10.525C10.9375 10.9625 11.0125 10.9875 11.3 11.0875L14.3125 12.1375C15.4 12.525 15.925 13.2875 15.925 14.4625C15.9375 15.825 14.8625 16.925 13.55 16.925Z" fill="#FFFFFF"/>
<path d="M12.5 17.925C11.9875 17.925 11.5625 17.5 11.5625 16.9875V16.0625C11.5625 15.55 11.9875 15.125 12.5 15.125C13.0125 15.125 13.4375 15.55 13.4375 16.0625V16.9875C13.4375 17.5125 13.0125 17.925 12.5 17.925Z" fill="#FFFFFF"/>
<path d="M12.5 9.92501C11.9875 9.92501 11.5625 9.50001 11.5625 8.98751V8.01251C11.5625 7.50001 11.9875 7.07501 12.5 7.07501C13.0125 7.07501 13.4375 7.50001 13.4375 8.01251V8.98751C13.4375 9.50001 13.0125 9.92501 12.5 9.92501Z" fill="#FFFFFF"/>
<path d="M12.4875 23.4C6.4625 23.4 1.5625 18.5 1.5625 12.475C1.5625 6.44999 6.4625 1.54999 12.4875 1.54999C18.5125 1.54999 23.4125 6.44999 23.4125 12.475C23.4125 18.5 18.5 23.4 12.4875 23.4ZM12.4875 3.43749C7.5 3.43749 3.4375 7.49999 3.4375 12.4875C3.4375 17.475 7.5 21.525 12.4875 21.525C17.475 21.525 21.5375 17.4625 21.5375 12.475C21.5375 7.48749 17.475 3.43749 12.4875 3.43749Z" fill="#FFFFFF"/>
<path d="M21.275 28.4C18.9625 28.4 16.7875 27.275 15.45 25.375C15.15 24.95 15.25 24.3625 15.675 24.0625C16.1 23.7625 16.6875 23.8625 16.9875 24.2875C17.975 25.6875 19.575 26.5125 21.275 26.5125C24.175 26.5125 26.525 24.1625 26.525 21.2625C26.525 19.575 25.7 17.975 24.325 16.9875C23.9 16.6875 23.8125 16.1 24.1125 15.675C24.4125 15.25 25 15.1625 25.425 15.4625C27.2875 16.8 28.4 18.9625 28.4 21.2625C28.4 25.2125 25.2125 28.4 21.275 28.4Z" fill="#FFFFFF"/>
</svg>
