<svg width="12" height="14" viewBox="0 0 12 14" fill="none" xmlns="http://www.w3.org/2000/svg">
<path d="M1.77853 13.2946C1.28787 13.2946 0.838971 13.098 0.504907 12.7395C0.108207 12.3001 -0.0692874 11.6756 0.024668 11.0048L0.316972 8.71503C0.379609 8.21775 0.66149 7.58169 0.985114 7.22318L6.40321 1.22112C8.26144 -0.837395 9.87955 0.087779 10.9026 1.22112C11.7065 2.1116 12.0719 3.04834 11.9883 3.98507C11.9257 4.74834 11.5603 5.46535 10.9026 6.20549L5.48453 12.2076C5.16091 12.5661 4.59716 12.8783 4.13783 12.9593L2.07083 13.2831C1.97687 13.2831 1.87248 13.2946 1.77853 13.2946ZM8.64769 1.72996C8.26143 1.72996 7.91694 2.00751 7.52024 2.43541L2.10215 8.43747C2.01863 8.52999 1.89336 8.81911 1.87248 8.94632L1.58017 11.2361C1.56973 11.3518 1.58015 11.4559 1.62191 11.5021C1.66367 11.5484 1.75763 11.5599 1.86203 11.5484L3.92906 11.2246C4.05433 11.2014 4.30488 11.0627 4.3884 10.9701L9.80649 4.96807C10.2032 4.52861 10.412 4.14698 10.4433 3.80004C10.4746 3.40684 10.2658 2.94425 9.80649 2.43541C9.34715 1.94969 8.98175 1.72996 8.64769 1.72996Z" fill="white"/>
</svg>
