<svg width="30" height="30" viewBox="0 0 30 30" fill="none" xmlns="http://www.w3.org/2000/svg">
<path d="M15.0002 28.4375C14.1627 28.4375 13.3127 28.225 12.5627 27.7875L5.1377 23.5C3.6377 22.625 2.7002 21.0125 2.7002 19.275V10.725C2.7002 8.98752 3.6377 7.37502 5.1377 6.50002L12.5627 2.21252C14.0627 1.33752 15.9252 1.33752 17.4377 2.21252L24.8627 6.50002C26.3627 7.37502 27.3002 8.98752 27.3002 10.725V19.275C27.3002 21.0125 26.3627 22.625 24.8627 23.5L17.4377 27.7875C16.6877 28.225 15.8377 28.4375 15.0002 28.4375ZM15.0002 3.4375C14.4877 3.4375 13.9627 3.57501 13.5002 3.83751L6.0752 8.125C5.1502 8.6625 4.5752 9.65002 4.5752 10.725V19.275C4.5752 20.3375 5.1502 21.3375 6.0752 21.875L13.5002 26.1625C14.4252 26.7 15.5752 26.7 16.5002 26.1625L23.9252 21.875C24.8502 21.3375 25.4252 20.35 25.4252 19.275V10.725C25.4252 9.66252 24.8502 8.6625 23.9252 8.125L16.5002 3.83751C16.0377 3.57501 15.5127 3.4375 15.0002 3.4375Z" fill="white"/>
<path d="M14.9999 14.6875C12.8749 14.6875 11.1499 12.9625 11.1499 10.8375C11.1499 8.71249 12.8749 6.98755 14.9999 6.98755C17.1249 6.98755 18.8499 8.71249 18.8499 10.8375C18.8499 12.9625 17.1249 14.6875 14.9999 14.6875ZM14.9999 8.86255C13.9124 8.86255 13.0249 9.74999 13.0249 10.8375C13.0249 11.925 13.9124 12.8125 14.9999 12.8125C16.0874 12.8125 16.9749 11.925 16.9749 10.8375C16.9749 9.74999 16.0874 8.86255 14.9999 8.86255Z" fill="white"/>
<path d="M20 21.7627C19.4875 21.7627 19.0625 21.3377 19.0625 20.8252C19.0625 19.1002 17.2375 17.6877 15 17.6877C12.7625 17.6877 10.9375 19.1002 10.9375 20.8252C10.9375 21.3377 10.5125 21.7627 10 21.7627C9.4875 21.7627 9.0625 21.3377 9.0625 20.8252C9.0625 18.0627 11.725 15.8127 15 15.8127C18.275 15.8127 20.9375 18.0627 20.9375 20.8252C20.9375 21.3377 20.5125 21.7627 20 21.7627Z" fill="#273DFF"/>
</svg>
