<svg width="30" height="30" viewBox="0 0 30 30" fill="none" xmlns="http://www.w3.org/2000/svg">
<path d="M15.0002 28.4374C14.1627 28.4374 13.3127 28.2249 12.5627 27.7874L5.1377 23.4999C3.6377 22.6249 2.7002 21.0124 2.7002 19.2749V10.7249C2.7002 8.9874 3.6377 7.37489 5.1377 6.49989L12.5627 2.2124C14.0627 1.3374 15.9252 1.3374 17.4377 2.2124L24.8627 6.49989C26.3627 7.37489 27.3002 8.9874 27.3002 10.7249V19.2749C27.3002 21.0124 26.3627 22.6249 24.8627 23.4999L17.4377 27.7874C16.6877 28.2249 15.8377 28.4374 15.0002 28.4374ZM15.0002 3.43738C14.4877 3.43738 13.9627 3.57489 13.5002 3.83739L6.0752 8.12488C5.1502 8.66238 4.5752 9.6499 4.5752 10.7249V19.2749C4.5752 20.3374 5.1502 21.3374 6.0752 21.8749L13.5002 26.1624C14.4252 26.6999 15.5752 26.6999 16.5002 26.1624L23.9252 21.8749C24.8502 21.3374 25.4252 20.3499 25.4252 19.2749V10.7249C25.4252 9.6624 24.8502 8.66238 23.9252 8.12488L16.5002 3.83739C16.0377 3.57489 15.5127 3.43738 15.0002 3.43738Z" fill="#8B8B8B"/>
<path d="M14.9999 14.6878C12.8749 14.6878 11.1499 12.9627 11.1499 10.8377C11.1499 8.71274 12.8749 6.98779 14.9999 6.98779C17.1249 6.98779 18.8499 8.71274 18.8499 10.8377C18.8499 12.9627 17.1249 14.6878 14.9999 14.6878ZM14.9999 8.86279C13.9124 8.86279 13.0249 9.75024 13.0249 10.8377C13.0249 11.9252 13.9124 12.8128 14.9999 12.8128C16.0874 12.8128 16.9749 11.9252 16.9749 10.8377C16.9749 9.75024 16.0874 8.86279 14.9999 8.86279Z" fill="#8B8B8B"/>
<path d="M20 21.7624C19.4875 21.7624 19.0625 21.3374 19.0625 20.8249C19.0625 19.0999 17.2375 17.6875 15 17.6875C12.7625 17.6875 10.9375 19.0999 10.9375 20.8249C10.9375 21.3374 10.5125 21.7624 10 21.7624C9.4875 21.7624 9.0625 21.3374 9.0625 20.8249C9.0625 18.0624 11.725 15.8125 15 15.8125C18.275 15.8125 20.9375 18.0624 20.9375 20.8249C20.9375 21.3374 20.5125 21.7624 20 21.7624Z" fill="#8B8B8B"/>
</svg>
