<svg width="36" height="20" viewBox="0 0 36 20" fill="none" xmlns="http://www.w3.org/2000/svg">
<path d="M32.3941 6.44733V13.601C32.3941 14.4823 32.194 15.1645 31.794 15.6474C31.3939 16.1304 30.8425 16.3719 30.1397 16.3719C29.4369 16.3719 28.8854 16.1304 28.4854 15.6474C28.0853 15.1645 27.8853 14.4823 27.8853 13.601V6.1636H24.3009V13.601C24.3009 14.4823 24.1009 15.1645 23.7009 15.6474C23.3008 16.1304 22.7494 16.3719 22.0466 16.3719C21.3437 16.3719 20.7923 16.1304 20.3923 15.6474C20.003 15.1826 19.8084 14.5186 19.7976 13.6794V5.83761C19.7976 4.00845 19.3651 2.57169 18.5001 1.54543C17.6351 0.519168 16.4727 0 15.0131 0C14.1859 0 13.4182 0.235436 12.7154 0.712346C12.0126 1.18925 11.4558 1.79897 11.0503 2.55358C10.6557 1.73861 10.1096 1.10474 9.41763 0.66405C8.72023 0.223362 7.93092 0 7.0443 0C6.29824 0 5.63328 0.16903 5.0386 0.501055C4.44932 0.839118 3.96816 1.29188 3.60595 1.86538V0.144883H0V13.8002L3.60595 13.8364V6.39903C3.60595 5.51766 3.80598 4.8355 4.20604 4.35255C4.6061 3.8696 5.15753 3.62813 5.86034 3.62813C6.56315 3.62813 7.11458 3.8696 7.51464 4.35255C7.9147 4.8355 8.11473 5.51766 8.11473 6.39903V13.8364H11.6991V6.39903C11.6991 5.51766 11.8991 4.8355 12.2991 4.35255C12.6992 3.8696 13.2506 3.62813 13.9534 3.62813C14.6563 3.62813 15.2077 3.8696 15.6077 4.35255C15.997 4.81739 16.1916 5.48144 16.2024 6.32056V14.1624C16.2024 15.9915 16.6349 17.4283 17.4999 18.4546C18.3649 19.4808 19.5273 20 20.9869 20C21.8141 20 22.5818 19.7646 23.2846 19.2877C23.9874 18.8107 24.5442 18.201 24.9497 17.4464C25.3443 18.2614 25.8904 18.8953 26.5824 19.336C27.2798 19.7766 28.0691 20 28.9557 20C29.7018 20 30.3667 19.831 30.9614 19.4989C31.5507 19.1609 32.0318 18.7081 32.3941 18.1346V19.8551H36V6.48959L32.3941 6.44129V6.44733Z" fill="white"/>
</svg>
