<svg width="30" height="30" viewBox="0 0 30 30" fill="none" xmlns="http://www.w3.org/2000/svg">
<path d="M18.3752 28.4375H11.6252C5.4502 28.4375 2.8252 25.8 2.8252 19.6375V14.025C2.8252 13.5125 3.2502 13.0875 3.7627 13.0875C4.2752 13.0875 4.7002 13.5125 4.7002 14.025V19.6375C4.7002 24.75 6.5127 26.5625 11.6252 26.5625H18.3627C23.4752 26.5625 25.2877 24.75 25.2877 19.6375V14.025C25.2877 13.5125 25.7127 13.0875 26.2252 13.0875C26.7377 13.0875 27.1627 13.5125 27.1627 14.025V19.6375C27.1752 25.8 24.5377 28.4375 18.3752 28.4375Z" fill="white"/>
<path d="M14.9998 15.9375C13.6248 15.9375 12.3748 15.4 11.4873 14.4125C10.5998 13.425 10.1873 12.1375 10.3248 10.7625L11.1623 2.4125C11.2123 1.9375 11.6123 1.5625 12.0998 1.5625H17.9373C18.4248 1.5625 18.8248 1.925 18.8748 2.4125L19.7123 10.7625C19.8498 12.1375 19.4373 13.425 18.5498 14.4125C17.6248 15.4 16.3748 15.9375 14.9998 15.9375ZM12.9373 3.4375L12.1873 10.95C12.0998 11.7875 12.3498 12.575 12.8748 13.15C13.9373 14.325 16.0623 14.325 17.1248 13.15C17.6498 12.5625 17.8998 11.775 17.8123 10.95L17.0623 3.4375H12.9373Z" fill="white"/>
<path d="M22.8875 15.9375C20.35 15.9375 18.0875 13.8875 17.825 11.3625L16.95 2.6C16.925 2.3375 17.0125 2.075 17.1875 1.875C17.3625 1.675 17.6125 1.5625 17.8875 1.5625H21.7C25.375 1.5625 27.0875 3.1 27.6 6.875L27.95 10.35C28.1 11.825 27.65 13.225 26.6875 14.2875C25.725 15.35 24.375 15.9375 22.8875 15.9375ZM18.925 3.4375L19.7 11.175C19.8625 12.7375 21.3125 14.0625 22.8875 14.0625C23.8375 14.0625 24.6875 13.7 25.3 13.0375C25.9 12.375 26.175 11.4875 26.0875 10.5375L25.7375 7.1C25.35 4.275 24.4375 3.4375 21.7 3.4375H18.925Z" fill="white"/>
<path d="M7.04978 15.9375C5.56228 15.9375 4.21228 15.35 3.24978 14.2875C2.28728 13.225 1.83728 11.825 1.98728 10.35L2.32478 6.9125C2.84978 3.1 4.56228 1.5625 8.23728 1.5625H12.0498C12.3123 1.5625 12.5623 1.675 12.7498 1.875C12.9373 2.075 13.0123 2.3375 12.9873 2.6L12.1123 11.3625C11.8498 13.8875 9.58728 15.9375 7.04978 15.9375ZM8.23728 3.4375C5.49978 3.4375 4.58728 4.2625 4.18728 7.125L3.84978 10.5375C3.74978 11.4875 4.03728 12.375 4.63728 13.0375C5.23728 13.7 6.08728 14.0625 7.04978 14.0625C8.62478 14.0625 10.0873 12.7375 10.2373 11.175L11.0123 3.4375H8.23728Z" fill="white"/>
<path d="M18.125 28.4375H11.875C11.3625 28.4375 10.9375 28.0125 10.9375 27.5V24.375C10.9375 21.75 12.375 20.3125 15 20.3125C17.625 20.3125 19.0625 21.75 19.0625 24.375V27.5C19.0625 28.0125 18.6375 28.4375 18.125 28.4375ZM12.8125 26.5625H17.1875V24.375C17.1875 22.8 16.575 22.1875 15 22.1875C13.425 22.1875 12.8125 22.8 12.8125 24.375V26.5625Z" fill="#273DFF"/>
</svg>
