<svg width="20" height="24" viewBox="0 0 20 24" fill="none" xmlns="http://www.w3.org/2000/svg">
<path d="M16.7216 12.6827C16.711 10.7163 17.593 9.23203 19.3784 8.13902C18.3795 6.69772 16.8704 5.90465 14.8779 5.74929C12.9915 5.59922 10.9299 6.85838 10.1755 6.85838C9.37848 6.85838 7.5506 5.80284 6.11596 5.80284C3.15087 5.85109 0 8.18718 0 12.9399C0 14.3437 0.255027 15.7939 0.765175 17.2906C1.44534 19.257 3.90019 24.0794 6.46125 23.9989C7.80028 23.9668 8.74607 23.0398 10.4888 23.0398C12.2316 23.0398 13.0553 23.9989 14.5484 23.9989C17.1307 23.9615 19.3517 19.5785 20 17.6067C16.5356 15.9618 16.7215 12.7844 16.7215 12.6826L16.7216 12.6827ZM13.7142 3.88468C15.1647 2.14865 15.032 0.567984 14.9894 0C13.7088 0.0750313 12.2264 0.878704 11.3814 1.87C10.4516 2.93094 9.90429 4.24365 10.0212 5.72251C11.408 5.82971 12.6726 5.11166 13.7141 3.88468H13.7142Z" fill="white"/>
</svg>
