<svg width="40" height="40" viewBox="0 0 40 40" fill="none" xmlns="http://www.w3.org/2000/svg">
<g clip-path="url(#clip0_1_8486)">
<path d="M8.18707 0H31.8142C36.3164 0 40.0013 3.6836 40.0013 8.18707V31.8142C40.0013 36.3164 36.3177 40.0013 31.8142 40.0013H8.18707C3.68489 40.0013 0 36.3177 0 31.8142V8.18707C0 3.6836 3.6836 0 8.18707 0Z" fill="#3ACE01"/>
<path d="M19.9615 6.62549C28.0665 6.62549 34.6369 11.8872 34.6369 18.3768C34.6369 20.644 33.835 22.761 32.4455 24.5559C32.3762 24.6586 32.2864 24.7715 32.1735 24.896L32.1645 24.9049C31.6898 25.472 31.156 26.0058 30.5684 26.4972C26.5101 30.2488 19.8307 34.7138 18.9492 34.0248C18.1832 33.4256 20.2117 30.4964 17.8715 30.0089C17.7085 29.9896 17.5456 29.9704 17.3839 29.9473H17.3813C10.5068 28.9709 5.28613 24.1621 5.28613 18.3768C5.28613 11.8872 11.8566 6.62549 19.9615 6.62549Z" fill="white"/>
<path d="M11.4474 22.1259H14.4074C14.8282 22.1259 15.1734 21.782 15.1734 21.3599V21.2958C15.1734 20.8749 14.8295 20.5298 14.4074 20.5298H12.2763V15.6825C12.2763 15.2616 11.9324 14.9165 11.5103 14.9165H11.4461C11.0253 14.9165 10.6802 15.2604 10.6802 15.6825V21.3586C10.6802 21.7795 11.024 22.1246 11.4461 22.1246L11.4474 22.1259ZM29.7872 18.568V18.5039C29.7872 18.083 29.4433 17.7379 29.0212 17.7379H26.8914V16.5254H29.0212C29.442 16.5254 29.7872 16.1816 29.7872 15.7595V15.6953C29.7872 15.2745 29.4433 14.9293 29.0212 14.9293H26.0612C25.6404 14.9293 25.2953 15.2732 25.2953 15.6953V21.3715C25.2953 21.7923 25.6391 22.1374 26.0612 22.1374H29.0212C29.442 22.1374 29.7872 21.7936 29.7872 21.3715V21.3073C29.7872 20.8865 29.4433 20.5413 29.0212 20.5413H26.8914V19.3289H29.0212C29.442 19.3289 29.7872 18.985 29.7872 18.5642V18.568ZM24.0956 21.8975C24.2316 21.7589 24.3163 21.5691 24.3163 21.3599V15.6838C24.3163 15.2629 23.9725 14.9178 23.5503 14.9178H23.4862C23.0653 14.9178 22.7202 15.2616 22.7202 15.6838V19.0158L19.954 15.3053C19.8218 15.0743 19.5729 14.9178 19.2894 14.9178H19.2252C18.8044 14.9178 18.4592 15.2616 18.4592 15.6838V21.3599C18.4592 21.7808 18.8031 22.1259 19.2252 22.1259H19.2894C19.7102 22.1259 20.0553 21.782 20.0553 21.3599V17.965L22.8421 21.7705C22.8588 21.7974 22.878 21.8231 22.8985 21.8475C22.9755 21.9527 23.0795 22.0233 23.1962 22.0669C23.286 22.1041 23.3835 22.1246 23.4862 22.1246H23.5503C23.6799 22.1246 23.8005 22.0925 23.9083 22.0348C23.9853 21.9989 24.0494 21.9514 24.0943 21.8962L24.0956 21.8975ZM16.5552 22.1259H16.6194C17.0402 22.1259 17.3853 21.782 17.3853 21.3599V15.6838C17.3853 15.2629 17.0415 14.9178 16.6194 14.9178H16.5552C16.1344 14.9178 15.7892 15.2616 15.7892 15.6838V21.3599C15.7892 21.7808 16.1331 22.1259 16.5552 22.1259Z" fill="#3ACE01"/>
</g>
<defs>
<clipPath id="clip0_1_8486">
<rect width="40" height="40" fill="white"/>
</clipPath>
</defs>
</svg>
