<svg width="21" height="20" viewBox="0 0 21 20" fill="none" xmlns="http://www.w3.org/2000/svg">
<path d="M10.4247 16.3823C9.66486 16.1786 8.73268 15.356 8.56767 12.5718L8.47672 11.0566L7.21002 10.2203C4.88774 8.68696 4.64141 7.46835 4.84502 6.70849C5.0469 5.95507 5.87125 5.01645 8.65078 4.84327L14.6062 4.48581C16.0939 4.3944 17.1975 4.83504 17.713 5.71858C18.2286 6.60212 18.0567 7.78459 17.2337 9.02726L13.9464 14.0061C12.4032 16.3395 11.1846 16.5859 10.4247 16.3823ZM8.7067 5.84522C6.75605 5.96442 5.92874 6.50194 5.8045 6.96559C5.68027 7.42923 6.12798 8.3084 7.75942 9.38051L9.23724 10.3562C9.36683 10.4393 9.45168 10.5862 9.4588 10.74L9.5649 12.5077C9.67766 14.4566 10.2216 15.2857 10.6853 15.4099C11.1489 15.5341 12.0281 15.0864 13.1066 13.4567L16.3939 8.47786C16.9881 7.57417 17.1475 6.74727 16.8411 6.21654C16.5347 5.68582 15.7371 5.4169 14.6639 5.48132L8.7067 5.84522Z" fill="white"/>
<path d="M9.02564 11.0173C8.90329 10.9845 8.79302 10.9067 8.72231 10.7842C8.5856 10.5474 8.66843 10.2383 8.90521 10.1016L11.83 8.40755C12.0668 8.27084 12.3759 8.35366 12.5126 8.59045C12.6493 8.82723 12.5665 9.13633 12.3297 9.27303L9.4049 10.9671C9.28886 11.0395 9.14799 11.0501 9.02564 11.0173Z" fill="white"/>
</svg>
