<svg width="54" height="68" viewBox="0 0 54 68" fill="none" xmlns="http://www.w3.org/2000/svg">
<path d="M42.7801 24.6C44.3401 16.31 41.2301 9.31996 44.1201 6.37996C47.0101 3.43996 50.1401 5.90996 51.6501 10.36C53.2601 15.1 52.4101 38.31 51.8401 43.8C51.2701 49.29 50.0401 57.25 42.8401 59.72C35.6401 62.19 31.0401 61.8 24.6001 60.09C18.1601 58.38 15.5601 49.58 8.74007 48.92C1.92007 48.26 0.500073 46.93 0.780073 44.37C1.06007 41.81 5.61007 40.58 10.8201 40.3C16.0301 40.02 24.9401 42.76 24.9401 42.76" stroke="#231F20" stroke-width="1.5" stroke-miterlimit="10" stroke-linecap="round"/>
<path d="M27.02 26.1299C27.02 26.1299 28.19 7.2599 25.41 3.3499C22.63 -0.560096 18.27 0.509904 17.13 2.9099C15.99 5.3099 17.07 16.4299 17.11 20.7199C17.15 25.0099 17.11 40.8699 17.11 40.8699" stroke="#231F20" stroke-width="1.5" stroke-miterlimit="10" stroke-linecap="round"/>
<path d="M27.27 21.7898C27.27 21.7898 32.3 18.5698 34.64 22.7398C36.98 26.9098 37.16 35.6998 36.72 37.0298C36.28 38.3598 31.49 42.1898 29.4 37.2698C29.4 37.2698 28.18 29.6798 27.03 26.1398" stroke="#231F20" stroke-width="1.5" stroke-miterlimit="10" stroke-linecap="round"/>
<path d="M34.79 22.3898C34.79 22.3898 40.25 18.3198 42.46 24.1898C45.02 30.9898 43.72 37.4498 42.65 38.4598C41.71 39.3398 37.46 40.5798 36.9 36.6398" stroke="#231F20" stroke-width="1.5" stroke-miterlimit="10" stroke-linecap="round"/>
<path d="M23.3201 59.6299C23.3201 59.6299 20.4701 64.3499 23.3201 65.5799C26.1701 66.8099 37.7301 68.5199 45.7801 65.1099C45.7801 65.1099 47.4301 64.4799 45.1601 58.6099" stroke="#231F20" stroke-width="1.5" stroke-miterlimit="10" stroke-linecap="round"/>
</svg>
