<svg width="54" height="68" viewBox="0 0 54 68" fill="none" xmlns="http://www.w3.org/2000/svg">
<g clip-path="url(#clip0_8_972)">
<path d="M23.2199 59.82L22.1699 62.52L22.6899 65.52L29.4099 66.86H39.5299L45.9999 64.93L46.2599 61.46L44.9899 58.72L39.6899 60.88L32.5199 61.46L25.0999 60.41L23.2199 59.82Z" fill="#878787"/>
<path d="M27.25 19.7L27.02 8.27001L25.35 2.65001L21.06 0.76001L17.57 2.23001L16.7 5.10001L17.13 25.14L17.12 40.61L10.32 40.04L2.4 42.22L0.75 44.02L1.27 46.62L3.5 48.44L10.56 49.3L14.26 51.56L21.18 58.72L27.27 60.73L35.84 61.46L44.68 59.05L49.56 53.51L51.56 46.17L52.58 24.95L52.02 11.97L49.12 6.12001L45.88 5.24001L43.35 6.95001L43.04 13.96L43.1 22.36L42.47 23.93L40.32 21.01L36.9 21.32L34.79 22.39L32.43 20.81H29.2L27.02 22.1L27.25 19.7Z" fill="#FCCBAF"/>
<path opacity="0.15" d="M38.78 66.86C38.78 66.86 40.14 64.97 40.42 60.46L45.2 58.72L46.51 64.23L43.46 65.94L38.78 66.87V66.86Z" fill="black"/>
<path opacity="0.15" d="M18.72 55.7001L21.94 58.9701L30.4 61.4601L37.92 61.2001L46.73 57.4301L49.99 52.5201L51.56 46.1801L52.36 35.0901C52.36 35.0901 46.79 63.9201 18.72 55.7101V55.7001Z" fill="black"/>
<path opacity="0.15" d="M29.1799 35.9601C29.1799 35.9601 30.9599 38.8301 32.9999 36.9801C35.0399 35.1301 36.5699 29.2901 35.9699 26.3601L36.6199 37.2401L34.2199 39.3601H31.5299L29.6399 37.7701L29.1799 35.9501V35.9601Z" fill="black"/>
<path opacity="0.15" d="M37.26 37.8501L38.78 39.2001L42.21 38.7801L43.66 36.8901L44.23 30.4501L43.35 27.0901C43.35 27.0901 41.76 37.4001 37.26 37.8501Z" fill="black"/>
<path d="M25.52 60.79C25.52 60.79 23.87 65.15 24.94 66.04L28.72 66.7L29.62 61.01L25.52 60.8V60.79Z" fill="white"/>
<path d="M42.7801 24.6C44.3401 16.31 41.2301 9.31996 44.1201 6.37996C47.0101 3.43996 50.1401 5.90996 51.6501 10.36C53.2601 15.1 52.4101 38.31 51.8401 43.8C51.2701 49.29 50.0401 57.25 42.8401 59.72C35.6401 62.19 31.0401 61.8 24.6001 60.09C18.1601 58.38 15.5601 49.58 8.74007 48.92C1.92007 48.26 0.500073 46.93 0.780073 44.37C1.06007 41.81 5.61007 40.58 10.8201 40.3C16.0301 40.02 24.9401 42.76 24.9401 42.76" stroke="#231F20" stroke-width="1.5" stroke-miterlimit="10" stroke-linecap="round"/>
<path d="M27.02 26.1299C27.02 26.1299 28.19 7.2599 25.41 3.3499C22.63 -0.560096 18.27 0.509904 17.13 2.9099C15.99 5.3099 17.07 16.4299 17.11 20.7199C17.15 25.0099 17.11 40.8699 17.11 40.8699" stroke="#231F20" stroke-width="1.5" stroke-miterlimit="10" stroke-linecap="round"/>
<path d="M27.27 21.7898C27.27 21.7898 32.3 18.5698 34.64 22.7398C36.98 26.9098 37.16 35.6998 36.72 37.0298C36.28 38.3598 31.49 42.1898 29.4 37.2698C29.4 37.2698 28.18 29.6798 27.03 26.1398" stroke="#231F20" stroke-width="1.5" stroke-miterlimit="10" stroke-linecap="round"/>
<path d="M34.79 22.3898C34.79 22.3898 40.25 18.3198 42.46 24.1898C45.02 30.9898 43.72 37.4498 42.65 38.4598C41.71 39.3398 37.46 40.5798 36.9 36.6398" stroke="#231F20" stroke-width="1.5" stroke-miterlimit="10" stroke-linecap="round"/>
<path d="M23.3201 59.6299C23.3201 59.6299 20.4701 64.3499 23.3201 65.5799C26.1701 66.8099 37.7301 68.5199 45.7801 65.1099C45.7801 65.1099 47.4301 64.4799 45.1601 58.6099" stroke="#231F20" stroke-width="1.5" stroke-miterlimit="10" stroke-linecap="round"/>
<path d="M19.7 3.46997C19.7 3.46997 19.16 5.42997 19.22 10.78" stroke="white" stroke-width="1.5" stroke-miterlimit="10" stroke-linecap="round"/>
<path d="M45.96 7.48999C45.96 7.48999 44.85 8.43999 44.79 10.43" stroke="white" stroke-miterlimit="10" stroke-linecap="round"/>
<path d="M3.82007 43.78C3.82007 43.78 6.14007 42.67 8.73007 42.71" stroke="white" stroke-width="1.5" stroke-miterlimit="10" stroke-linecap="round"/>
</g>
<defs>
<clipPath id="clip0_8_972">
<rect width="53.34" height="67.87" fill="white"/>
</clipPath>
</defs>
</svg>
