<svg width="74" height="75" viewBox="0 0 74 75" fill="none" xmlns="http://www.w3.org/2000/svg">
<g clip-path="url(#clip0_1_4754)">
<g filter="url(#filter0_d_1_4754)">
<path d="M45.4768 51.8413C45.4768 51.8413 58.9788 38.2405 60.5069 38.0427C62.125 37.836 62.5295 38.2495 63.3386 39.1664C64.3184 40.2811 63.2307 41.5216 61.9093 42.843C60.5879 44.1644 48.0747 55.9135 48.0747 55.9135C48.0747 55.9135 47.5444 56.0483 47.0859 55.4011C46.6275 54.7538 45.5487 52.974 45.2791 52.0481L45.4678 51.8413H45.4768Z" fill="#98D9EC"/>
</g>
<g filter="url(#filter1_d_1_4754)">
<path d="M49.9626 18.7876L50.484 19.5247L53.4145 19.8213L54.2775 20.963L62.2331 14.1221L65.9097 11.0118L65.2355 9.13304L63.4646 8.18018L55.8417 14.1041L49.9626 18.7876Z" fill="#EF495F"/>
</g>
<path d="M50.4928 64.8488L52.1289 68.3726L51.3109 71.375L46.5016 73.4606H43.643L41.7732 69.757L36.892 66.7276L34.2761 63.5813L35.0762 60.2553L35.3458 57.4506L37.4673 56.4258L38.5371 53.72L40.6945 52.7941L41.9889 50.9333L44.6228 51.1491L46.6274 55.7876L48.65 56.4438L50.2681 55.6707L51.1491 58.9159L50.4928 64.8488Z" fill="#FCCBAF"/>
<path d="M54.2684 36.8561L48.758 36.6853L46.2589 36.3527L47.1758 33.2604L45.4049 32.6491L44.8656 30.5187L48.6231 27.5522L48.9737 25.4577H48.0298L47.2567 26.824L46.1331 27.714L45.1892 28.4421L43.1576 28.3343L41.6384 26.1319V24.2441L42.8969 23.5429L43.6251 21.9608L44.4251 21.4125L45.387 19.9742L46.4657 19.8214L47.7781 18.5269L49.0726 17.8887L50.1333 18.9674L50.3581 19.6865L52.911 19.9472L54.7898 21.3496L55.6078 24.5498L54.61 28.8197L54.1066 30.0692L54.6999 34.2492L54.2684 36.8561Z" fill="#FCCBAF"/>
<path d="M48.6232 25.6016L47.6524 25.8083L46.7624 27.3994L45.6658 27.8129L44.8657 28.577L42.8161 27.8399L41.5307 26.5994L41.1621 27.9388L41.9711 29.8445L43.9218 30.7704L46.0972 29.8086L48.821 27.3725L48.6232 25.6016Z" fill="#878787"/>
<path d="M33.8628 63.6533L32.9189 65.4062L34.2763 68.2019L36.5596 69.3076L39.1126 68.112L35.0764 65.3074L33.8628 63.6533Z" fill="#878787"/>
<path d="M49.9626 18.7876L50.484 19.5247L53.4145 19.8213L54.2775 20.963L62.2331 14.1221L65.9097 11.0118L65.2355 9.13304L63.4646 8.18018L55.8417 14.1041L49.9626 18.7876Z" fill="#EE4097"/>
<path d="M59.2396 38.2854L51.8953 44.9914L45.0005 51.5177L45.9623 55.0415L47.4995 56.2011L49.63 55.0415L60.8217 44.4251L64.2196 40.7485L63.3926 38.2854L60.6689 37.5393L59.2396 38.2854Z" fill="#4CC8F0"/>
<path opacity="0.15" d="M36.5686 66.3411C36.5686 66.3411 37.7552 67.1681 41.0453 68.0221C44.3354 68.876 44.1826 71.2043 45.0006 71.402C45.8186 71.5998 51.2122 70.2334 51.9763 67.9681L52.1291 69.3075L50.2144 72.256L46.0973 73.5954L43.6432 73.4606L42.3487 70.6919L39.9935 68.8221L37.2967 67.258L36.5686 66.35V66.3411Z" fill="black"/>
<path opacity="0.15" d="M36.7303 66.7456C36.7303 66.7456 35.5078 68.076 34.7167 68.076C33.9257 68.076 35.7235 69.1098 35.7235 69.1098L37.9439 68.6963L38.735 68.085L36.7393 66.7456H36.7303Z" fill="black"/>
<path opacity="0.15" d="M48.8209 27.768C48.8209 27.768 48.4523 30.7794 49.3603 31.6874C50.2682 32.5953 50.5019 34.2134 50.412 34.9235C50.3221 35.6337 54.61 35.7146 54.61 35.7146L54.4572 36.9821L46.2589 36.3528L47.2028 33.2155L45.1622 32.3705L44.7397 30.4019L48.8119 27.759L48.8209 27.768Z" fill="black"/>
<path d="M46.3848 55.2213C46.3848 55.2213 63.1049 40.4069 64.1746 39.0405L64.1297 40.7125L60.2103 45.0544L48.2006 56.3809L46.8792 56.2191L46.3848 55.2123V55.2213Z" fill="#00ADC9"/>
<path d="M53.2795 19.8123L65.8016 9.8252L65.523 11.3354L54.2414 20.7113L53.2795 19.8123Z" fill="#D11776"/>
<path d="M44.7397 51.9223C44.7397 51.9223 58.7541 38.0339 60.2463 37.6473C61.9093 37.2248 63.1948 37.917 63.878 39.2384C64.5612 40.5599 63.9948 41.3509 62.6734 42.6723C61.352 43.9938 48.3085 56.4709 48.3085 56.4709" stroke="#313131" stroke-width="1.3" stroke-miterlimit="10"/>
<path d="M50.2412 18.7337C50.2412 18.7337 62.5026 8.65665 63.4106 8.34202C64.3185 8.02739 66.2961 9.33983 65.9006 11.0029L54.3943 20.7473" stroke="#313131" stroke-miterlimit="10"/>
<path d="M50.394 55.6798C50.394 55.6798 51.5266 57.7024 51.221 60.5161C50.9153 63.3297 49.9445 64.6871 50.8794 66.2243C51.8143 67.7615 52.7492 68.4806 51.7693 70.0987C50.7895 71.7168 49.513 72.8674 46.4926 73.4607C43.4722 74.054 43.3014 72.5708 43.0047 71.7617C42.7081 70.9527 40.3619 68.6065 39.3461 68.2289C38.3303 67.8514 34.2761 65.3344 34.2761 63.2039C34.2761 61.0734 35.0672 60.2644 35.0672 60.2644C35.0672 60.2644 34.2042 57.5227 37.4673 56.6147C37.4673 56.6147 37.2965 52.8392 40.5866 53.2078C40.5866 53.2078 40.8743 50.5649 44.443 51.5627C44.443 51.5627 46.0881 55.9585 47.3646 56.417C48.641 56.8754 50.385 55.6888 50.385 55.6888L50.394 55.6798Z" stroke="black" stroke-width="1.3" stroke-linecap="round" stroke-linejoin="round"/>
<path d="M33.9347 63.5813C33.9347 63.5813 32.1458 65.1544 33.9347 67.5456C35.7236 69.9367 37.6743 69.1906 38.8249 67.9861" stroke="black" stroke-width="1.3" stroke-linecap="round" stroke-linejoin="round"/>
<path d="M41.6025 26.4465C41.6025 26.4465 40.6226 28.1905 41.6025 29.431C42.5823 30.6715 43.688 31.0491 45.3061 30.1951C46.9241 29.3411 48.6231 27.5522 48.6231 27.5522" stroke="black" stroke-linecap="round" stroke-linejoin="round"/>
<path d="M49.9626 23.9924C49.9626 23.9924 49.0277 25.17 48.8299 25.7993C48.6322 26.4285 48.9468 28.2803 48.9468 28.2803" stroke="black" stroke-linecap="round" stroke-linejoin="round"/>
<path d="M50.9245 22.8598C50.9245 22.8598 50.1694 23.9385 49.612 24.1093C49.0547 24.2801 47.4636 23.2014 47.8861 22.1496C48.3086 21.0979 49.3064 19.8933 50.6188 19.7225C51.9313 19.5517 54.1786 19.8933 55.0506 21.826C55.9225 23.7587 54.9697 28.0646 54.4573 28.9995C53.9449 29.9344 54.0348 30.3209 54.3044 31.5974C54.5741 32.8739 54.9697 35.7055 54.6011 36.6224C54.2325 37.5393 47.3197 36.4067 46.4658 36.4966C45.6118 36.5865 47.3377 33.4312 47.1669 33.2604C46.9961 33.0896 44.5421 32.9907 44.8836 30.3838" stroke="black" stroke-linecap="round" stroke-linejoin="round"/>
<path d="M50.2411 19.5247C50.2411 19.5247 49.7377 17.9695 48.7579 18.0954C47.7781 18.2212 46.8791 19.2011 46.7982 20.1C46.7173 20.9989 46.6993 21.6731 47.8859 22.8507" stroke="black" stroke-linecap="round" stroke-linejoin="round"/>
<path d="M46.7624 19.9743C46.7624 19.9743 45.8815 19.6327 45.387 19.9743C44.8926 20.3159 43.8768 21.4036 45.2162 23.5521C46.5557 25.7005 47.2568 25.5297 47.7512 25.5926C48.2456 25.6556 48.9918 25.3679 49.0727 24.0195" stroke="black" stroke-linecap="round" stroke-linejoin="round"/>
<path d="M44.452 21.5293C44.452 21.5293 43.4722 21.745 43.2834 22.5091C43.0947 23.2732 43.0497 24.0463 43.607 25.2329C44.1644 26.4195 44.8206 27.2735 45.8454 27.5342C46.8702 27.7948 47.3825 26.8779 47.6522 25.8082" stroke="black" stroke-linecap="round" stroke-linejoin="round"/>
<path d="M42.9869 23.6778C42.9869 23.6778 42.3038 23.6598 41.8813 24.2082C41.4588 24.7565 41.4138 25.8083 41.7734 26.4465C42.133 27.0848 43.1398 28.4331 44.0117 28.55C44.8837 28.6669 45.6478 28.4691 45.7377 27.705" stroke="black" stroke-linecap="round" stroke-linejoin="round"/>
<path d="M54.0347 16.9717L63.4824 9.48364" stroke="white" stroke-width="0.5" stroke-miterlimit="10" stroke-linecap="round"/>
<path d="M47.949 50.9333L59.9767 39.5798" stroke="white" stroke-width="0.75" stroke-miterlimit="10" stroke-linecap="round"/>
<path d="M43.2026 53.2346C43.2026 53.2346 43.8858 55.9584 45.8455 57.2349" stroke="white" stroke-miterlimit="10" stroke-linecap="round"/>
<path d="M49.1177 22.1316C49.1177 22.1316 50.0705 20.5405 51.374 20.8461" stroke="white" stroke-width="0.75" stroke-miterlimit="10" stroke-linecap="round"/>
<path d="M0 70.5212V55.9316C0 55.9316 20.5226 32.2358 56.8844 36.5596L43.6611 49.3964C43.6611 49.3964 41.8273 49.5492 40.3081 50.3942C39.0046 51.1223 37.3326 52.2819 35.9572 53.864C35.9572 53.864 16.0639 50.8706 0 70.5123V70.5212Z" fill="#4CC8F0"/>
<path d="M0 35.1751V22.3563C0 22.3563 24.9274 4.07206 60.3542 8.29704L49.9626 16.8099C49.9626 16.8099 45.1623 16.9987 42.4925 20.963C42.4925 20.963 18.1404 19.246 0 35.1751Z" fill="#EE4097"/>
<path d="M11.5422 43.8768C11.5422 43.8768 21.5923 37.0179 31.4266 35.5347" stroke="#4CC8F0" stroke-miterlimit="10" stroke-linecap="round"/>
<path d="M5.27661 48.8569C5.27661 48.8569 6.37331 47.4456 9.59148 45.2522" stroke="#4CC8F0" stroke-miterlimit="10" stroke-linecap="round"/>
<path d="M9.59155 64.8129C9.59155 64.8129 19.4708 57.4506 26.9949 57.2349" stroke="#4CC8F0" stroke-miterlimit="10" stroke-linecap="round"/>
<path d="M15.0662 28.5142C15.0662 28.5142 23.9566 23.2285 36.2719 23.7858" stroke="#EE4097" stroke-miterlimit="10" stroke-linecap="round"/>
<path d="M3.11938 18.1316C3.11938 18.1316 5.98697 15.9741 9.59169 14.7246" stroke="#EE4097" stroke-miterlimit="10" stroke-linecap="round"/>
<path d="M12.8906 13.2323C12.8906 13.2323 26.9679 6.56224 40.3709 6.5083" stroke="#EE4097" stroke-miterlimit="10" stroke-linecap="round"/>
</g>
<defs>
<filter id="filter0_d_1_4754" x="39.2791" y="31.9905" width="30.437" height="29.9346" filterUnits="userSpaceOnUse" color-interpolation-filters="sRGB">
<feFlood flood-opacity="0" result="BackgroundImageFix"/>
<feColorMatrix in="SourceAlpha" type="matrix" values="0 0 0 0 0 0 0 0 0 0 0 0 0 0 0 0 0 0 127 0" result="hardAlpha"/>
<feOffset/>
<feGaussianBlur stdDeviation="3"/>
<feColorMatrix type="matrix" values="0 0 0 0 0.207843 0 0 0 0 0.772549 0 0 0 0 0.94902 0 0 0 1 0"/>
<feBlend mode="normal" in2="BackgroundImageFix" result="effect1_dropShadow_1_4754"/>
<feBlend mode="normal" in="SourceGraphic" in2="effect1_dropShadow_1_4754" result="shape"/>
</filter>
<filter id="filter1_d_1_4754" x="43.9626" y="2.18018" width="27.947" height="24.7827" filterUnits="userSpaceOnUse" color-interpolation-filters="sRGB">
<feFlood flood-opacity="0" result="BackgroundImageFix"/>
<feColorMatrix in="SourceAlpha" type="matrix" values="0 0 0 0 0 0 0 0 0 0 0 0 0 0 0 0 0 0 127 0" result="hardAlpha"/>
<feOffset/>
<feGaussianBlur stdDeviation="3"/>
<feColorMatrix type="matrix" values="0 0 0 0 0.905882 0 0 0 0 0.184314 0 0 0 0 0.447059 0 0 0 1 0"/>
<feBlend mode="normal" in2="BackgroundImageFix" result="effect1_dropShadow_1_4754"/>
<feBlend mode="normal" in="SourceGraphic" in2="effect1_dropShadow_1_4754" result="shape"/>
</filter>
<clipPath id="clip0_1_4754">
<rect width="74" height="74.1798" fill="white"/>
</clipPath>
</defs>
</svg>
