<svg width="73" height="78" viewBox="0 0 73 78" fill="none" xmlns="http://www.w3.org/2000/svg">
<g clip-path="url(#clip0_1_4791)">
<path d="M0.700088 22.4801L0.590088 23.9801L18.7001 57.6501L27.7001 73.4401L29.5301 75.9801L31.4501 75.9401L39.0901 71.7501L69.2901 55.1601L70.5201 53.6601L69.3501 50.9301L41.7701 1.17008L39.5801 0.580078L35.2601 3.02008L1.25009 22.0101L0.700088 22.4801Z" fill="white"/>
<path d="M55.4101 49.96C55.4101 49.96 55.3901 49.88 55.3801 49.85C55.3601 49.78 55.3401 49.71 55.3101 49.64C55.3101 49.63 55.3001 49.61 55.2901 49.6C55.2701 49.54 55.2401 49.48 55.2101 49.42C55.2101 49.42 55.1901 49.37 55.1701 49.34C54.4101 47.77 52.7001 47.02 51.3501 47.67C50.5601 48.05 50.0701 48.82 49.9501 49.71C49.1801 49.25 48.2701 49.16 47.4801 49.54C46.1301 50.19 45.6401 51.99 46.4001 53.57C46.7201 54.24 47.2201 54.76 47.7901 55.09C49.9101 56.51 53.2801 56.64 53.2801 56.64C53.2801 56.64 55.4701 53.7 55.5301 51.07C55.5501 50.72 55.5101 50.36 55.4201 50C55.4201 50 55.4201 49.99 55.4201 49.98L55.4101 49.96Z" fill="#EE4097"/>
<path d="M67.1102 53.35C67.1102 53.35 67.1102 53.31 67.1202 53.29C67.1202 53.25 67.1302 53.21 67.1402 53.17V53.15C67.1402 53.11 67.1402 53.08 67.1402 53.04C67.1402 53.04 67.1402 53.01 67.1402 52.99C67.1402 52.05 66.5002 51.29 65.6902 51.28C65.2202 51.28 64.8002 51.53 64.5302 51.93C64.2702 51.53 63.8502 51.27 63.3802 51.26C62.5702 51.26 61.9102 52.01 61.9102 52.95C61.9102 53.35 62.0202 53.72 62.2202 54.01C62.9102 55.2 64.5002 56.05 64.5002 56.05C64.5002 56.05 66.2602 55.15 66.9002 53.89C66.9902 53.73 67.0602 53.54 67.1002 53.35H67.1102Z" fill="#EE4097"/>
<path d="M59.5401 50.3501C59.5401 50.3501 59.5401 50.3301 59.5401 50.3201C59.5401 50.3001 59.5401 50.2901 59.5401 50.2701C59.5401 50.2701 59.5401 50.2701 59.5401 50.2601C59.5401 50.2401 59.5401 50.2301 59.5401 50.2101C59.5401 50.2101 59.5401 50.2001 59.5401 50.1901C59.4401 49.7801 59.0801 49.5201 58.7301 49.6001C58.5301 49.6501 58.3701 49.8001 58.3001 50.0001C58.1401 49.8501 57.9401 49.7801 57.7301 49.8301C57.3801 49.9101 57.1701 50.3101 57.2701 50.7101C57.3101 50.8801 57.4001 51.0301 57.5201 51.1401C57.9401 51.5801 58.7201 51.7901 58.7201 51.7901C58.7201 51.7901 59.3901 51.2201 59.5301 50.6101C59.5501 50.5301 59.5601 50.4401 59.5601 50.3501H59.5401Z" fill="#EE4097"/>
<path d="M56.6902 28.6602C56.6902 28.6602 56.6902 28.6402 56.6902 28.6302C56.6902 28.6102 56.6902 28.6002 56.6902 28.5802C56.6902 28.5802 56.6902 28.5802 56.6902 28.5702C56.6902 28.5502 56.6902 28.5402 56.6902 28.5202C56.6902 28.5202 56.6902 28.5102 56.6902 28.5002C56.5902 28.0902 56.2302 27.8302 55.8802 27.9102C55.6802 27.9602 55.5202 28.1102 55.4502 28.3102C55.2902 28.1602 55.0902 28.0902 54.8802 28.1402C54.5302 28.2202 54.3202 28.6202 54.4202 29.0202C54.4602 29.1902 54.5502 29.3402 54.6702 29.4502C55.0902 29.8902 55.8702 30.1002 55.8702 30.1002C55.8702 30.1002 56.5402 29.5302 56.6802 28.9202C56.7002 28.8402 56.7102 28.7502 56.7102 28.6602H56.6902Z" fill="#EE4097"/>
<path d="M49.1201 15.1401C49.1201 15.1401 49.1001 15.1301 49.0801 15.1201C49.0601 15.1101 49.0401 15.1001 49.0101 15.0901C49.0101 15.0901 49.0101 15.0901 49.0001 15.0901C48.9801 15.0901 48.9601 15.0701 48.9401 15.0701C48.9401 15.0701 48.9201 15.0701 48.9101 15.0701C48.3501 14.9001 47.7801 15.1501 47.6301 15.6301C47.5401 15.9101 47.6301 16.2001 47.8101 16.4401C47.5201 16.5301 47.2901 16.7301 47.2101 17.0101C47.0601 17.4901 47.4001 18.0201 47.9501 18.1901C48.1901 18.2601 48.4301 18.2601 48.6401 18.1901C49.4701 17.9901 50.2601 17.1901 50.2601 17.1901C50.2601 17.1901 50.0301 15.9801 49.4001 15.3801C49.3201 15.3001 49.2201 15.2201 49.1101 15.1701L49.1201 15.1401Z" fill="#EE4097"/>
<path d="M7.33012 31.7801C7.33012 31.7801 7.33012 31.7601 7.33012 31.7501C7.33012 31.7301 7.33012 31.7201 7.33012 31.7001C7.33012 31.7001 7.33012 31.7001 7.33012 31.6901C7.33012 31.6701 7.33012 31.6601 7.33012 31.6401C7.33012 31.6401 7.33012 31.6301 7.33012 31.6201C7.23012 31.2101 6.87012 30.9501 6.52012 31.0301C6.32012 31.0801 6.16012 31.2301 6.09012 31.4301C5.93012 31.2801 5.73012 31.2101 5.52012 31.2601C5.17012 31.3401 4.96012 31.7401 5.06012 32.1401C5.10012 32.3101 5.19012 32.4601 5.31012 32.5701C5.73012 33.0101 6.51012 33.2201 6.51012 33.2201C6.51012 33.2201 7.18012 32.6501 7.32012 32.0401C7.34012 31.9601 7.35012 31.8701 7.35012 31.7801H7.33012Z" fill="#EE4097"/>
<path d="M11.3802 19.7101C11.3802 19.7101 11.3802 19.6701 11.3802 19.6501C11.3802 19.6101 11.3802 19.5701 11.3702 19.5401V19.5201C11.3702 19.4901 11.3602 19.4501 11.3502 19.4201C11.3502 19.4201 11.3502 19.3901 11.3502 19.3701C11.1402 18.4801 10.3502 17.9001 9.5902 18.0801C9.1402 18.1801 8.8102 18.5201 8.6402 18.9601C8.3002 18.6401 7.8502 18.4901 7.4002 18.5901C6.6302 18.7701 6.1802 19.6301 6.3902 20.5201C6.4802 20.9001 6.6702 21.2201 6.9302 21.4501C7.8502 22.4201 9.5602 22.8601 9.5602 22.8601C9.5602 22.8601 11.0102 21.6101 11.3402 20.2701C11.3902 20.0901 11.4102 19.9001 11.4002 19.7101H11.3802Z" fill="#EE4097"/>
<path d="M32.2702 9.21997C32.2702 9.21997 32.2902 9.18997 32.3002 9.16997C32.3202 9.13997 32.3302 9.10997 32.3402 9.08997C32.3402 9.08997 32.3402 9.07997 32.3402 9.06997C32.3502 9.03997 32.3602 9.01997 32.3802 8.98997C32.3802 8.98997 32.3902 8.96997 32.4002 8.94997C32.6702 8.23997 32.3902 7.47997 31.7802 7.24997C31.4202 7.11997 31.0302 7.18997 30.7202 7.41997C30.6302 7.03997 30.3902 6.72997 30.0302 6.58997C29.4202 6.35997 28.7102 6.74997 28.4402 7.45997C28.3302 7.75997 28.3102 8.07997 28.3802 8.34997C28.5702 9.44997 29.5402 10.54 29.5402 10.54C29.5402 10.54 31.1302 10.34 31.9702 9.56997C32.0902 9.46997 32.1902 9.34997 32.2702 9.20997V9.21997Z" fill="#EE4097"/>
<path d="M42.09 2.42007C42.09 2.42007 42.1 2.40007 42.11 2.39007C42.11 2.37007 42.13 2.35007 42.14 2.34007C42.14 2.34007 42.14 2.34007 42.14 2.33007C42.14 2.31007 42.16 2.30007 42.16 2.28007V2.26007C42.33 1.81007 42.16 1.32007 41.76 1.17007C41.53 1.08007 41.28 1.13007 41.08 1.28007C41.02 1.04007 40.87 0.840075 40.64 0.750075C40.25 0.600075 39.8 0.850075 39.63 1.31007C39.56 1.50007 39.55 1.70007 39.59 1.88007C39.71 2.58007 40.33 3.28007 40.33 3.28007C40.33 3.28007 41.34 3.15007 41.88 2.66007C41.95 2.60008 42.02 2.52007 42.07 2.43007L42.09 2.42007Z" fill="#EE4097"/>
<path d="M17.0201 46.9202C17.0201 46.9202 17.0201 46.9102 17.0201 46.9002C17.0201 46.8902 17.0201 46.8702 17.0201 46.8602C17.0201 46.8502 17.0201 46.8402 17.0201 46.8202C17.0201 46.8202 17.0201 46.8102 17.0201 46.8002C16.9501 46.4902 16.6701 46.2802 16.4001 46.3502C16.2401 46.3902 16.1201 46.5102 16.0601 46.6602C15.9401 46.5502 15.7801 46.4902 15.6201 46.5302C15.3501 46.5902 15.1901 46.9002 15.2601 47.2102C15.2901 47.3402 15.3601 47.4602 15.4501 47.5402C15.7801 47.8802 16.3801 48.0402 16.3801 48.0402C16.3801 48.0402 16.8901 47.6002 17.0101 47.1202C17.0301 47.0602 17.0401 46.9902 17.0301 46.9202H17.0201Z" fill="#EE4097"/>
<path d="M57.8602 44.09C57.8602 44.09 57.8802 44.06 57.8902 44.04C57.9102 44.01 57.9202 43.98 57.9402 43.96C57.9402 43.96 57.9402 43.95 57.9402 43.94C57.9502 43.91 57.9702 43.89 57.9802 43.86C57.9802 43.86 57.9902 43.84 58.0002 43.82C58.2702 43.11 58.0002 42.34 57.3802 42.11C57.0202 41.97 56.6302 42.05 56.3102 42.28C56.2202 41.9 55.9802 41.58 55.6202 41.44C55.0102 41.21 54.2902 41.59 54.0202 42.31C53.9002 42.61 53.8902 42.93 53.9602 43.21C54.1502 44.31 55.1202 45.42 55.1202 45.42C55.1202 45.42 56.7102 45.23 57.5602 44.46C57.6802 44.36 57.7802 44.24 57.8702 44.1L57.8602 44.09Z" fill="#EE4097"/>
<path d="M63.5201 42.1801C63.5201 42.1801 63.4801 42.1601 63.4501 42.1501C63.4101 42.1301 63.3702 42.1101 63.3302 42.1001C63.3302 42.1001 63.3101 42.1001 63.3001 42.1001C63.2601 42.0901 63.2201 42.0701 63.1801 42.0601C63.1801 42.0601 63.1501 42.0501 63.1301 42.0501C62.1001 41.7601 61.0701 42.2501 60.8201 43.1301C60.6801 43.6401 60.8301 44.1801 61.1901 44.6001C60.6701 44.7701 60.2601 45.1501 60.1101 45.6601C59.8601 46.5401 60.4901 47.4901 61.5201 47.7801C61.9601 47.9001 62.4001 47.8801 62.7801 47.7601C64.2901 47.3601 65.7101 45.8701 65.7101 45.8701C65.7101 45.8701 65.2401 43.6701 64.0601 42.5901C63.9101 42.4401 63.7301 42.3101 63.5201 42.2101V42.1801Z" fill="#EE4097"/>
<path d="M45.9601 64.15C45.9601 64.15 45.9401 64.09 45.9301 64.06C45.9101 64.01 45.9001 63.95 45.8801 63.9C45.8801 63.89 45.8801 63.88 45.8701 63.87C45.8501 63.82 45.8301 63.78 45.8101 63.73C45.8101 63.73 45.7901 63.69 45.7801 63.67C45.2001 62.47 43.8901 61.9 42.8601 62.39C42.2601 62.68 41.8801 63.27 41.7901 63.95C41.2001 63.6 40.5101 63.53 39.9001 63.82C38.8701 64.32 38.5001 65.7 39.0701 66.9C39.3201 67.41 39.7001 67.81 40.1301 68.06C41.7501 69.15 44.3301 69.24 44.3301 69.24C44.3301 69.24 46.0101 66.99 46.0501 64.98C46.0601 64.71 46.0401 64.44 45.9601 64.16C45.9601 64.16 45.9601 64.16 45.9601 64.15Z" fill="#EE4097"/>
<path d="M56.3701 61.84C56.3701 61.84 56.3701 61.81 56.3801 61.8C56.3801 61.78 56.3901 61.75 56.4001 61.73C56.4001 61.73 56.4001 61.73 56.4001 61.72C56.4001 61.7 56.4001 61.67 56.4101 61.65C56.4101 61.65 56.4101 61.63 56.4101 61.62C56.4701 61.02 56.1101 60.49 55.5901 60.44C55.2901 60.41 55.0101 60.55 54.8101 60.78C54.6701 60.51 54.4201 60.31 54.1201 60.28C53.6001 60.23 53.1301 60.67 53.0701 61.27C53.0401 61.53 53.0901 61.77 53.2001 61.97C53.5701 62.77 54.5301 63.42 54.5301 63.42C54.5301 63.42 55.7101 62.95 56.2001 62.19C56.2701 62.09 56.3201 61.98 56.3601 61.85L56.3701 61.84Z" fill="#EE4097"/>
<path d="M43.2901 55.62C43.2901 55.62 43.2701 55.59 43.2601 55.58C43.2401 55.55 43.2201 55.53 43.2001 55.51C43.2001 55.51 43.2001 55.51 43.1901 55.5C43.1701 55.48 43.1501 55.46 43.1301 55.44C43.1301 55.44 43.1101 55.42 43.1001 55.41C42.5401 54.89 41.7201 54.86 41.2701 55.34C41.0101 55.62 40.9301 56.02 41.0201 56.4C40.6301 56.34 40.2401 56.44 39.9801 56.73C39.5301 57.21 39.6201 58.03 40.1901 58.55C40.4301 58.77 40.7201 58.9 41.0001 58.95C42.1001 59.19 43.4901 58.7 43.4901 58.7C43.4901 58.7 43.9101 57.14 43.5101 56.06C43.4601 55.91 43.3901 55.77 43.2901 55.64V55.62Z" fill="#EE4097"/>
<path d="M31.7201 68.8901C31.7201 68.8901 31.7401 68.8401 31.7501 68.8101C31.7701 68.7601 31.7901 68.7101 31.8101 68.6601C31.8101 68.6601 31.8101 68.6401 31.8101 68.6301C31.8201 68.5801 31.8401 68.5401 31.8501 68.4901C31.8501 68.4901 31.8601 68.4501 31.8701 68.4301C32.1601 67.2101 31.5401 66.0201 30.4901 65.7701C29.8801 65.6201 29.2601 65.8301 28.7801 66.2701C28.5601 65.6701 28.0901 65.2001 27.4801 65.0601C26.4301 64.8101 25.3401 65.6001 25.0501 66.8201C24.9301 67.3401 24.9701 67.8601 25.1401 68.2901C25.6801 70.0401 27.5001 71.6401 27.5001 71.6401C27.5001 71.6401 30.0601 70.9901 31.2801 69.5501C31.4501 69.3601 31.5901 69.1501 31.7001 68.9001C31.7001 68.9001 31.7001 68.9001 31.7001 68.8901H31.7201Z" fill="#EE4097"/>
<path d="M35.6801 57.9801C35.6801 57.9801 35.7001 57.9301 35.7101 57.9101C35.7301 57.8601 35.7401 57.8201 35.7601 57.7701C35.7601 57.7701 35.7601 57.7501 35.7601 57.7401C35.7701 57.7001 35.7801 57.6601 35.7901 57.6101C35.7901 57.6101 35.7901 57.5701 35.8001 57.5501C36.0201 56.4101 35.4001 55.3401 34.4201 55.1601C33.8501 55.0501 33.2901 55.2701 32.8701 55.6901C32.6401 55.1401 32.1901 54.7301 31.6201 54.6201C30.6401 54.4301 29.6701 55.2001 29.4601 56.3401C29.3701 56.8201 29.4301 57.3001 29.6001 57.6901C30.1701 59.2801 31.9101 60.6801 31.9101 60.6801C31.9101 60.6801 34.2401 59.9801 35.3001 58.6001C35.4501 58.4201 35.5701 58.2101 35.6601 57.9801C35.6601 57.9801 35.6601 57.9801 35.6601 57.9701L35.6801 57.9801Z" fill="#EE4097"/>
<path d="M33.8402 71.7101C33.8402 71.7101 33.8402 71.7001 33.8302 71.6901C33.8302 71.6801 33.8102 71.6601 33.8002 71.6501C33.8002 71.6401 33.7802 71.6301 33.7702 71.6201C33.7702 71.6201 33.7702 71.6201 33.7602 71.6101C33.5102 71.3401 33.1302 71.2901 32.9002 71.5001C32.7702 71.6201 32.7102 71.8101 32.7402 71.9901C32.5602 71.9401 32.3702 71.9801 32.2402 72.1001C32.0102 72.3101 32.0202 72.7001 32.2602 72.9701C32.3602 73.0801 32.4902 73.1601 32.6302 73.1901C33.1402 73.3501 33.8202 73.1701 33.8202 73.1701C33.8202 73.1701 34.0802 72.4501 33.9402 71.9201C33.9202 71.8501 33.8902 71.7801 33.8502 71.7101H33.8402Z" fill="#EE4097"/>
<path d="M22.8302 59.5202C22.8302 59.5202 22.8302 59.5002 22.8302 59.4902C22.8302 59.4702 22.8402 59.4502 22.8502 59.4302C22.8502 59.4302 22.8502 59.4302 22.8502 59.4202C22.8502 59.4002 22.8502 59.3802 22.8602 59.3702V59.3502C22.9302 58.8802 22.6602 58.4502 22.2602 58.3902C22.0202 58.3502 21.8002 58.4502 21.6302 58.6302C21.5302 58.4102 21.3402 58.2502 21.1002 58.2102C20.7002 58.1502 20.3102 58.4802 20.2402 58.9502C20.2102 59.1502 20.2402 59.3402 20.3202 59.5002C20.5802 60.1502 21.3102 60.6902 21.3102 60.6902C21.3102 60.6902 22.2502 60.3702 22.6702 59.7902C22.7302 59.7102 22.7802 59.6302 22.8102 59.5302L22.8302 59.5202Z" fill="#EE4097"/>
<path d="M39.122 5.0221L5.61118 23.422C4.87533 23.826 4.60634 24.7501 5.01038 25.4859L22.698 57.6995C23.102 58.4353 24.0261 58.7043 24.7619 58.3003L58.2727 39.9004C59.0086 39.4963 59.2776 38.5723 58.8735 37.8364L41.186 5.6229C40.7819 4.88705 39.8579 4.61806 39.122 5.0221Z" fill="#EE4097"/>
<path d="M11.34 24.5301C11.34 24.5301 11.34 24.5001 11.33 24.4901C11.33 24.4701 11.31 24.4401 11.31 24.4201C11.31 24.4201 11.31 24.4201 11.31 24.4101C11.31 24.3901 11.29 24.3701 11.28 24.3401C11.28 24.3401 11.28 24.3201 11.27 24.3101C11 23.7501 10.4 23.4901 9.92005 23.7201C9.64005 23.8501 9.47005 24.1301 9.42005 24.4401C9.15005 24.2801 8.82005 24.2401 8.55005 24.3801C8.07005 24.6101 7.90005 25.2501 8.17005 25.8101C8.28005 26.0501 8.46005 26.2301 8.66005 26.3501C9.41005 26.8501 10.6 26.9001 10.6 26.9001C10.6 26.9001 11.38 25.8601 11.4 24.9301C11.4 24.8101 11.4 24.6801 11.36 24.5501L11.34 24.5301Z" fill="white"/>
<path d="M18.6601 27.3799C18.6601 27.3799 18.6601 27.3499 18.6501 27.3399C18.6501 27.3199 18.6301 27.2899 18.6301 27.2699C18.6301 27.2699 18.6301 27.2699 18.6301 27.2599C18.6301 27.2399 18.6101 27.2199 18.6001 27.1899C18.6001 27.1899 18.6001 27.1699 18.5901 27.1599C18.3201 26.5999 17.7201 26.3399 17.2401 26.5699C16.9601 26.6999 16.7901 26.9799 16.7401 27.2899C16.4701 27.1299 16.1401 27.0899 15.8701 27.2299C15.3901 27.4599 15.2201 28.0999 15.4901 28.6599C15.6001 28.8999 15.7801 29.0799 15.9801 29.1999C16.7301 29.6999 17.9201 29.7499 17.9201 29.7499C17.9201 29.7499 18.7001 28.7099 18.7201 27.7799C18.7201 27.6599 18.7201 27.5299 18.6801 27.3999L18.6601 27.3799Z" fill="white"/>
<path d="M23.4199 38.9C23.4199 38.9 23.4199 38.87 23.4099 38.86C23.4099 38.84 23.3899 38.81 23.3899 38.79C23.3899 38.79 23.3899 38.79 23.3899 38.78C23.3899 38.76 23.3699 38.74 23.3599 38.71C23.3599 38.71 23.3599 38.69 23.3499 38.68C23.0799 38.12 22.4799 37.86 21.9999 38.09C21.7199 38.22 21.5499 38.5 21.4999 38.81C21.2299 38.65 20.8999 38.61 20.6299 38.75C20.1499 38.98 19.9799 39.62 20.2499 40.18C20.3599 40.42 20.5399 40.6 20.7399 40.72C21.4899 41.22 22.6799 41.27 22.6799 41.27C22.6799 41.27 23.4599 40.23 23.4799 39.3C23.4799 39.18 23.4799 39.05 23.4399 38.92L23.4199 38.9Z" fill="white"/>
<path d="M20.34 19.42C20.34 19.42 20.34 19.39 20.33 19.38C20.33 19.36 20.31 19.33 20.31 19.31C20.31 19.31 20.31 19.31 20.31 19.3C20.31 19.28 20.29 19.26 20.28 19.23C20.28 19.23 20.28 19.21 20.27 19.2C20 18.64 19.4 18.38 18.92 18.61C18.64 18.74 18.47 19.02 18.42 19.33C18.15 19.17 17.82 19.13 17.55 19.27C17.07 19.5 16.9 20.14 17.17 20.7C17.28 20.94 17.46 21.12 17.66 21.24C18.41 21.74 19.6 21.79 19.6 21.79C19.6 21.79 20.38 20.75 20.4 19.82C20.4 19.7 20.4 19.57 20.36 19.44L20.34 19.42Z" fill="white"/>
<path d="M29.34 14.2701C29.34 14.2701 29.34 14.2401 29.33 14.2301C29.33 14.2101 29.31 14.1801 29.31 14.1601C29.31 14.1601 29.31 14.1601 29.31 14.1501C29.31 14.1301 29.29 14.1101 29.28 14.0801C29.28 14.0801 29.28 14.0601 29.27 14.0501C29 13.4901 28.4 13.2301 27.92 13.4601C27.64 13.5901 27.47 13.8701 27.42 14.1801C27.15 14.0201 26.82 13.9801 26.55 14.1201C26.07 14.3501 25.9 14.9901 26.17 15.5501C26.28 15.7901 26.46 15.9701 26.66 16.0901C27.41 16.5901 28.6 16.6401 28.6 16.6401C28.6 16.6401 29.38 15.6001 29.4 14.6701C29.4 14.5501 29.4 14.4201 29.36 14.2901L29.34 14.2701Z" fill="white"/>
<path d="M46.6301 44.68C46.6301 44.68 46.6301 44.65 46.6201 44.64C46.6201 44.62 46.6001 44.59 46.6001 44.57C46.6001 44.57 46.6001 44.57 46.6001 44.56C46.6001 44.54 46.5801 44.52 46.5701 44.49C46.5701 44.49 46.5701 44.47 46.5601 44.46C46.2901 43.9 45.6901 43.64 45.2101 43.87C44.9301 44 44.7601 44.28 44.7101 44.59C44.4401 44.43 44.1101 44.39 43.8401 44.53C43.3601 44.76 43.1901 45.4 43.4601 45.96C43.5701 46.2 43.7501 46.38 43.9501 46.5C44.7001 47 45.8901 47.05 45.8901 47.05C45.8901 47.05 46.6701 46.01 46.6901 45.08C46.6901 44.96 46.6901 44.83 46.6501 44.7L46.6301 44.68Z" fill="white"/>
<path d="M38.08 9.62994C38.08 9.62994 38.08 9.59994 38.07 9.58994C38.07 9.56994 38.05 9.53994 38.05 9.51994C38.05 9.51994 38.05 9.51994 38.05 9.50994C38.05 9.48994 38.03 9.46994 38.02 9.43994C38.02 9.43994 38.02 9.41994 38.01 9.40994C37.74 8.84994 37.14 8.58994 36.66 8.81994C36.38 8.94994 36.21 9.22994 36.16 9.53994C35.89 9.37994 35.56 9.33994 35.29 9.47994C34.81 9.70994 34.64 10.3499 34.91 10.9099C35.02 11.1499 35.2 11.3299 35.4 11.4499C36.15 11.9499 37.34 11.9999 37.34 11.9999C37.34 11.9999 38.12 10.9599 38.14 10.0299C38.14 9.90994 38.14 9.77994 38.1 9.64994L38.08 9.62994Z" fill="white"/>
<path d="M16.27 35.72C16.27 35.72 16.27 35.69 16.26 35.68C16.26 35.66 16.24 35.63 16.24 35.61C16.24 35.61 16.24 35.61 16.24 35.6C16.24 35.58 16.22 35.56 16.21 35.53C16.21 35.53 16.21 35.51 16.2 35.5C15.93 34.94 15.33 34.68 14.85 34.91C14.57 35.04 14.4 35.32 14.35 35.63C14.08 35.47 13.75 35.43 13.48 35.57C13 35.8 12.83 36.44 13.1 37C13.21 37.24 13.39 37.42 13.59 37.54C14.34 38.04 15.53 38.09 15.53 38.09C15.53 38.09 16.31 37.05 16.33 36.12C16.33 36 16.33 35.87 16.29 35.74L16.27 35.72Z" fill="white"/>
<path d="M25.26 30.5999C25.26 30.5999 25.26 30.5699 25.25 30.5599C25.25 30.5399 25.23 30.5099 25.23 30.4899C25.23 30.4899 25.23 30.4899 25.23 30.4799C25.23 30.4599 25.21 30.4399 25.2 30.4099C25.2 30.4099 25.2 30.3899 25.19 30.3799C24.92 29.8199 24.32 29.5599 23.84 29.7899C23.56 29.9199 23.39 30.1999 23.34 30.5099C23.07 30.3499 22.74 30.3099 22.47 30.4499C21.99 30.6799 21.82 31.3199 22.09 31.8799C22.2 32.1199 22.38 32.2999 22.58 32.4199C23.33 32.9199 24.52 32.9699 24.52 32.9699C24.52 32.9699 25.3 31.9299 25.32 30.9999C25.32 30.8799 25.32 30.7499 25.28 30.6199L25.26 30.5999Z" fill="white"/>
<path d="M34.26 25.46C34.26 25.46 34.26 25.43 34.25 25.42C34.25 25.4 34.23 25.37 34.23 25.35C34.23 25.35 34.23 25.35 34.23 25.34C34.23 25.32 34.21 25.3 34.2 25.27C34.2 25.27 34.2 25.25 34.19 25.24C33.92 24.68 33.32 24.42 32.84 24.65C32.56 24.78 32.39 25.06 32.34 25.37C32.07 25.21 31.74 25.17 31.47 25.31C30.99 25.54 30.82 26.18 31.09 26.74C31.2 26.98 31.38 27.16 31.58 27.28C32.33 27.78 33.52 27.83 33.52 27.83C33.52 27.83 34.3 26.79 34.32 25.86C34.32 25.74 34.32 25.61 34.28 25.48L34.26 25.46Z" fill="white"/>
<path d="M43.01 20.8199C43.01 20.8199 43.01 20.7899 43 20.7799C43 20.7599 42.98 20.7299 42.98 20.7099C42.98 20.7099 42.98 20.7099 42.98 20.6999C42.98 20.6799 42.96 20.6599 42.95 20.6299C42.95 20.6299 42.95 20.6099 42.94 20.5999C42.67 20.0399 42.07 19.7799 41.59 20.0099C41.31 20.1399 41.14 20.4199 41.09 20.7299C40.82 20.5699 40.49 20.5299 40.22 20.6699C39.74 20.8999 39.57 21.5399 39.84 22.0999C39.95 22.3399 40.13 22.5199 40.33 22.6399C41.08 23.1399 42.27 23.1899 42.27 23.1899C42.27 23.1899 43.05 22.1499 43.07 21.2199C43.07 21.0999 43.07 20.9699 43.03 20.8399L43.01 20.8199Z" fill="white"/>
<path d="M21.57 45.6399C21.57 45.6399 21.57 45.6099 21.56 45.5999C21.56 45.5799 21.54 45.5499 21.54 45.5299C21.54 45.5299 21.54 45.5299 21.54 45.5199C21.54 45.4999 21.52 45.4799 21.51 45.4499C21.51 45.4499 21.51 45.4299 21.5 45.4199C21.23 44.8599 20.63 44.5999 20.15 44.8299C19.87 44.9599 19.7 45.2399 19.65 45.5499C19.38 45.3899 19.05 45.3499 18.78 45.4899C18.3 45.7199 18.13 46.3599 18.4 46.9199C18.51 47.1599 18.69 47.3399 18.89 47.4599C19.64 47.9599 20.83 48.0099 20.83 48.0099C20.83 48.0099 21.61 46.9699 21.63 46.0399C21.63 45.9199 21.63 45.7899 21.59 45.6599L21.57 45.6399Z" fill="white"/>
<path d="M30.57 40.5201C30.57 40.5201 30.57 40.4901 30.56 40.4801C30.56 40.4601 30.54 40.4301 30.54 40.4101C30.54 40.4101 30.54 40.4101 30.54 40.4001C30.54 40.3801 30.52 40.3601 30.51 40.3301C30.51 40.3301 30.51 40.3101 30.5 40.3001C30.23 39.7401 29.63 39.4801 29.15 39.7101C28.87 39.8401 28.7 40.1201 28.65 40.4301C28.38 40.2701 28.05 40.2301 27.78 40.3701C27.3 40.6001 27.13 41.2401 27.4 41.8001C27.51 42.0401 27.69 42.2201 27.89 42.3401C28.64 42.8401 29.83 42.8901 29.83 42.8901C29.83 42.8901 30.61 41.8501 30.63 40.9201C30.63 40.8001 30.63 40.6701 30.59 40.5401L30.57 40.5201Z" fill="white"/>
<path d="M39.57 35.3799C39.57 35.3799 39.57 35.3499 39.56 35.3399C39.56 35.3199 39.54 35.2899 39.54 35.2699C39.54 35.2699 39.54 35.2699 39.54 35.2599C39.54 35.2399 39.52 35.2199 39.51 35.1899C39.51 35.1899 39.51 35.1699 39.5 35.1599C39.23 34.5999 38.63 34.3399 38.15 34.5699C37.87 34.6999 37.7 34.9799 37.65 35.2899C37.38 35.1299 37.05 35.0899 36.78 35.2299C36.3 35.4599 36.13 36.0999 36.4 36.6599C36.51 36.8999 36.69 37.0799 36.89 37.1999C37.64 37.6999 38.83 37.7499 38.83 37.7499C38.83 37.7499 39.61 36.7099 39.63 35.7799C39.63 35.6599 39.63 35.5299 39.59 35.3999L39.57 35.3799Z" fill="white"/>
<path d="M48.31 30.74C48.31 30.74 48.31 30.71 48.3 30.7C48.3 30.68 48.28 30.65 48.28 30.63C48.28 30.63 48.28 30.63 48.28 30.62C48.28 30.6 48.26 30.58 48.25 30.55C48.25 30.55 48.25 30.53 48.24 30.52C47.97 29.96 47.37 29.7 46.89 29.93C46.61 30.06 46.44 30.34 46.39 30.65C46.12 30.49 45.79 30.45 45.52 30.59C45.04 30.82 44.87 31.46 45.14 32.02C45.25 32.26 45.43 32.44 45.63 32.56C46.38 33.06 47.57 33.11 47.57 33.11C47.57 33.11 48.35 32.07 48.37 31.14C48.37 31.02 48.37 30.89 48.33 30.76L48.31 30.74Z" fill="white"/>
<path d="M27.1401 22.91C27.1401 22.91 27.1401 22.88 27.1301 22.87C27.1301 22.85 27.1101 22.82 27.1101 22.8C27.1101 22.8 27.1101 22.8 27.1101 22.79C27.1101 22.77 27.0901 22.75 27.0801 22.72C27.0801 22.72 27.0801 22.7 27.0701 22.69C26.8001 22.13 26.2001 21.87 25.7201 22.1C25.4401 22.23 25.2701 22.51 25.2201 22.82C24.9501 22.66 24.6201 22.62 24.3501 22.76C23.8701 22.99 23.7001 23.63 23.9701 24.19C24.0801 24.43 24.2601 24.61 24.4601 24.73C25.2101 25.23 26.4001 25.28 26.4001 25.28C26.4001 25.28 27.1801 24.24 27.2001 23.31C27.2001 23.19 27.2001 23.06 27.1601 22.93L27.1401 22.91Z" fill="white"/>
<path d="M45.5 13.4699C45.5 13.4699 42.07 12.9199 39.99 13.4699C37.91 14.0199 37.68 11.7299 35.74 12.0199C33.8 12.3099 27.21 15.2899 26.69 16.6199C26.17 17.9499 26.12 21.2899 24.23 22.2599C22.34 23.2299 26.39 21.8699 26.2 22.9099C26.01 23.9499 25.17 27.6599 25.69 29.3199C26.21 30.9799 25.45 31.6899 25.12 33.0099C24.79 34.3299 24.93 36.9299 26.3 38.3599C27.67 39.7899 31.08 41.1599 32.13 41.7299C33.18 42.2999 33.17 42.5699 32.75 43.4099C32.33 44.2499 32.25 44.8599 30.9 44.6699C29.55 44.4799 29.19 44.9799 27.68 46.0399C26.17 47.0999 23.42 47.4399 22.78 45.6599C22.14 43.8799 21.64 42.0399 21.05 41.7499C20.46 41.4599 20.48 41.2799 20.77 40.7599C21.06 40.2399 22.1 37.6099 20.25 35.9999C20.25 35.9999 19.82 34.6299 20.32 33.3899C20.82 32.1499 20.65 30.7599 19.51 30.7099C18.37 30.6599 18.07 34.7599 17.52 34.4299C16.97 34.0999 15.55 30.7799 14.91 30.7599C14.27 30.7399 13.39 31.0399 14.25 33.3699C15.11 35.6999 15.43 35.8999 15.23 36.4499C15.03 36.9999 14.23 38.1599 14.63 39.2699C15.03 40.3799 16 41.4299 16.67 42.4399C17.34 43.4499 15.96 45.0499 15.96 45.0499L22.89 57.9799L23.94 58.4999L27.35 57.0199L45.5 47.1999C45.5 47.1999 45.32 45.7099 44.06 45.2699C42.8 44.8299 41.51 44.2699 42.61 43.7499C43.71 43.2299 43.53 43.4299 45.48 44.0699C47.43 44.7099 47.97 43.5399 49.43 43.4099C50.89 43.2799 52.27 43.4099 52.27 43.4099L59 39.4599L58.81 37.3399L45.5 13.4799V13.4699Z" fill="#313131"/>
<path opacity="0.3" d="M30.6899 76.18C30.6899 76.18 31.0099 78.63 34.3599 77.05C37.7099 75.47 71.8899 56.67 71.8899 56.67C71.8899 56.67 74.2099 54.52 72.0699 50.69C69.9299 46.86 43.9999 1.08996 43.9999 1.08996C43.9999 1.08996 43.1099 -0.290039 41.3699 0.509962L70.1199 52.34L69.9499 55L30.6899 76.19" fill="black"/>
<path d="M39.4284 0.749314L1.57861 21.5316C0.571664 22.0845 0.203576 23.349 0.756464 24.356L28.6282 75.1175C29.1811 76.1244 30.4456 76.4925 31.4526 75.9396L69.3024 55.1573C70.3093 54.6044 70.6774 53.3399 70.1245 52.333L42.2528 1.57146C41.6999 0.564514 40.4354 0.196425 39.4284 0.749314Z" stroke="black" stroke-miterlimit="10"/>
<path d="M39.122 5.0221L5.61118 23.422C4.87533 23.826 4.60634 24.7501 5.01038 25.4859L22.698 57.6995C23.102 58.4353 24.0261 58.7043 24.7619 58.3003L58.2727 39.9004C59.0086 39.4963 59.2776 38.5723 58.8735 37.8364L41.186 5.6229C40.7819 4.88705 39.8579 4.61806 39.122 5.0221Z" stroke="black" stroke-miterlimit="10"/>
</g>
<defs>
<clipPath id="clip0_1_4791">
<rect width="72.98" height="77.58" fill="white"/>
</clipPath>
</defs>
</svg>
