<svg width="37" height="65" viewBox="0 0 37 65" fill="none" xmlns="http://www.w3.org/2000/svg">
<g clip-path="url(#clip0_1_4716)">
<path d="M21.4401 6.68999C21.4501 6.63999 21.4601 6.57999 21.4701 6.52999C21.4901 6.42999 21.5001 6.33999 21.5101 6.23999C21.5101 6.21999 21.5101 6.19999 21.5101 6.17999C21.5101 6.08999 21.5301 5.99999 21.5301 5.90999C21.5301 5.90999 21.5301 5.82999 21.5301 5.78999C21.5301 3.41999 19.7301 1.48999 17.5101 1.48999C16.2201 1.48999 15.0701 2.14999 14.3401 3.15999C13.6001 2.14999 12.4601 1.48999 11.1701 1.48999C8.95015 1.48999 7.15015 3.41999 7.15015 5.78999C7.15015 6.79999 7.48015 7.72999 8.03015 8.46999C9.95015 11.46 14.3501 13.6 14.3501 13.6C14.3501 13.6 19.1601 11.28 20.9101 8.09999C21.1601 7.67999 21.3401 7.21999 21.4501 6.71999C21.4501 6.71999 21.4501 6.70999 21.4501 6.69999L21.4401 6.68999Z" fill="#EE4097"/>
<path d="M5.89002 0.5C5.89002 0.5 0.750022 3.93 5.02002 8.44" stroke="#EE4097" stroke-linecap="round" stroke-linejoin="round"/>
<path d="M1.31004 2.97998C1.31004 2.97998 -0.0199611 6.03998 2.25004 7.87998" stroke="#EE4097" stroke-linecap="round" stroke-linejoin="round"/>
<path d="M24.3101 1.78003C24.3101 1.78003 27.2201 3.61003 25.2601 7.87003" stroke="#EE4097" stroke-linecap="round" stroke-linejoin="round"/>
<path d="M27.9599 4.83008C27.9599 4.83008 28.9999 8.05008 27.1699 9.95008" stroke="#EE4097" stroke-linecap="round" stroke-linejoin="round"/>
<path d="M8.75003 6.29009C8.75003 6.29009 8.35003 3.42009 11.19 3.09009" stroke="white" stroke-miterlimit="10" stroke-linecap="round"/>
<path d="M13.14 25.21C13.14 25.21 9.10996 18.63 8.06996 18.26C7.02996 17.89 4.74996 18.04 4.09996 18.88C3.44996 19.72 2.66996 22.55 2.66996 22.55L4.36996 28.26L7.31996 33.7L3.42996 41.3L0.959961 47.44L1.06996 52.96L4.60996 59.17L9.87996 62.22L15.08 64.16L20.32 63.92L27.11 61.4L31.85 57.09L35.4 50.13V46.67L30.9 45.34L31.42 42.12L30.2 38.88L26.92 37.63H25.34L25.84 33.69L24.32 31.37L20.39 30.85L24.91 22.09L24.89 18.96L22.05 17.52L19.35 17.85L16.6 20.95L13.15 25.21H13.14Z" fill="#FCCBAF"/>
<path opacity="0.15" d="M0.779775 51.2399C0.779775 51.2399 7.64978 60.7099 17.1898 60.0199C26.7298 59.3299 35.3998 49.1599 35.3998 49.1599L33.4298 55.2199L25.8398 61.8199L21.3098 64.1699H15.9998L8.98977 62.2899L3.20978 57.1899L0.769775 52.8099L0.799775 51.2299L0.779775 51.2399Z" fill="black"/>
<path opacity="0.15" d="M23.95 53.0301C23.95 53.0301 23.95 51.8301 24.74 50.7901C25.53 49.7501 30.3599 43.1701 30.8799 39.8301L31.66 43.0601L29.54 47.6401L24.5499 53.4001L23.95 53.0401V53.0301Z" fill="black"/>
<path opacity="0.15" d="M18.17 47.19C18.17 47.19 17.81 46.24 18.45 45.36C19.09 44.48 25.35 36.95 25.75 34.29L25.67 37.74L20.57 45.52L18.18 47.2L18.17 47.19Z" fill="black"/>
<path opacity="0.15" d="M12.4199 41.22C12.4199 41.22 11.8199 40.45 12.6999 39.15C13.5799 37.85 23.8099 22.8 24.8899 20.71L24.6999 22.62L18.9699 32.64L13.1399 41.41L12.4199 41.22Z" fill="black"/>
<path opacity="0.15" d="M3.14993 20.27C3.14993 20.27 4.97993 28.1 10.1899 28.9L7.45993 33.93C7.45993 33.93 4.95993 29.47 4.93993 29.43C4.91993 29.39 2.42993 22.79 2.42993 22.79L3.15993 20.27H3.14993Z" fill="black"/>
<path d="M30.8299 45.3599C30.8299 45.3599 36.7299 43.8799 35.1199 50.1799C33.1999 57.6999 25.3199 63.8399 18.4399 64.1499C11.5599 64.4599 -1.01011 58.5699 0.959895 48.3299C2.92989 38.0899 15.8199 21.6199 18.3899 18.8399C20.9599 16.0599 25.1499 18.3099 25.1599 20.8499C25.1799 24.4499 12.9499 41.4399 12.9499 41.4399" stroke="black" stroke-width="1.5" stroke-linecap="round" stroke-linejoin="round"/>
<path d="M20.1299 30.95C20.1299 30.95 23.8499 30.17 25.3299 33.04C26.6599 35.62 25.0099 38.77 23.5599 40.93C22.1099 43.09 18.6299 47.44 18.6299 47.44" stroke="black" stroke-width="1.5" stroke-linecap="round" stroke-linejoin="round"/>
<path d="M25.6698 37.73C25.6698 37.73 29.3898 36.95 30.8698 39.82C32.1998 42.4 30.8498 45.11 29.3898 47.26C27.9298 49.41 24.5398 53.39 24.5398 53.39" stroke="black" stroke-width="1.5" stroke-linecap="round" stroke-linejoin="round"/>
<path d="M7.45991 33.94C7.45991 33.94 2.61991 26.24 2.65991 22.69C2.69991 19.14 5.24991 17.16 7.68991 18.08C10.1299 19 13.1399 25.5 13.1399 25.5" stroke="black" stroke-width="1.5" stroke-linecap="round" stroke-linejoin="round"/>
<path d="M20.2599 20.4099C20.2599 20.4099 18.2599 22.5799 16.1199 25.7399" stroke="white" stroke-width="1.5" stroke-miterlimit="10" stroke-linecap="round"/>
</g>
<defs>
<clipPath id="clip0_1_4716">
<rect width="36.14" height="64.91" fill="white"/>
</clipPath>
</defs>
</svg>
