<svg width="24" height="24" viewBox="0 0 24 24" fill="none" xmlns="http://www.w3.org/2000/svg">
<g clip-path="url(#clip0_1_4615)">
<path d="M15.3388 9.39075C15.2709 9.81667 14.8636 10.1085 14.4276 10.0421C13.9916 9.97583 13.6928 9.57792 13.7592 9.152C13.8271 8.72609 14.2345 8.43429 14.6705 8.50061C15.1065 8.56693 15.4052 8.96484 15.3373 9.39075H15.3388Z" fill="white"/>
<path d="M12.0316 11.5705C11.84 11.3833 11.84 11.0783 12.0316 10.8911C12.2232 10.7039 12.5355 10.7039 12.7271 10.8911C12.9187 11.0783 12.9187 11.3833 12.7271 11.5705C12.5355 11.7577 12.2232 11.7577 12.0316 11.5705Z" fill="white"/>
<path d="M13.3035 13.2312C13.3035 12.9851 13.5087 12.7861 13.7591 12.7876C14.011 12.7876 14.2147 12.988 14.2132 13.2327C14.2132 13.4788 14.008 13.6778 13.7576 13.6778C13.5056 13.6778 13.302 13.4773 13.3035 13.2327V13.2312Z" fill="white"/>
<path d="M22.6482 8.61116C22.6482 8.24715 22.9514 7.95092 23.3256 7.9524C23.6982 7.9524 24.0015 8.24862 24 8.61411C24 8.97813 23.6967 9.27435 23.3226 9.27288C22.9499 9.27288 22.6467 8.97665 22.6482 8.61264V8.61116Z" fill="white"/>
<path d="M17.0962 0.658766C17.0977 0.29475 17.3994 0 17.7736 0C18.1462 0 18.4495 0.296223 18.448 0.661713C18.448 1.02573 18.1447 1.32195 17.7706 1.32048C17.3979 1.32048 17.0947 1.02426 17.0962 0.660239V0.658766Z" fill="white"/>
<path d="M6.1735 2.65126C6.68042 2.91948 6.87051 3.53845 6.59593 4.03363C6.32135 4.53029 5.68771 4.71451 5.1808 4.44628C4.67388 4.17806 4.48379 3.56056 4.75837 3.06391C5.03295 2.56725 5.66659 2.38304 6.1735 2.65126Z" fill="white"/>
<path d="M5.64843 5.77862C5.75555 6.12789 5.55188 6.49633 5.19432 6.59949C4.83676 6.70413 4.4596 6.50517 4.35399 6.1559C4.24687 5.80662 4.45054 5.43818 4.8081 5.33502C5.16566 5.23038 5.54282 5.42934 5.64994 5.77862H5.64843Z" fill="white"/>
<path d="M15.6011 2.19148C15.9376 1.86431 16.4822 1.86431 16.8171 2.19296C17.1521 2.5216 17.1521 3.05363 16.8156 3.3808C16.4792 3.70797 15.9346 3.70797 15.5996 3.37933C15.2647 3.05068 15.2647 2.51866 15.6011 2.19148Z" fill="white"/>
<path d="M14.411 11.4762C14.7474 11.149 15.292 11.149 15.627 11.4776C15.9619 11.8063 15.9619 12.3383 15.6254 12.6655C15.289 12.9926 14.7444 12.9926 14.4095 12.664C14.0745 12.3353 14.0745 11.8033 14.411 11.4762Z" fill="white"/>
<path d="M0 17.9752C0 21.1733 2.85441 23.9984 6.43751 23.9984C9.04903 23.9984 11.3498 22.3876 12.3772 20.4025C12.4134 20.3745 12.4481 20.3435 12.4813 20.3096L14.5934 18.1535C14.6175 18.1285 14.6402 18.1034 14.6613 18.0769L15.992 16.7166C16.0387 16.6695 16.0779 16.6179 16.1142 16.5648L20.868 11.8901C21.304 11.445 21.2633 10.717 20.7775 10.2631C20.2917 9.80917 19.5464 9.80328 19.1104 10.2469L12.961 16.3482C12.9143 16.3954 12.875 16.4469 12.8388 16.5L12.7785 16.5604C12.7347 16.4057 12.6834 16.2539 12.6246 16.1036C12.9882 15.6835 11.4358 13.9902 10.9303 14.3999L10.8851 14.3351C10.7855 14.2407 10.6618 14.1199 10.5773 14.0609C10.5532 14.0447 10.5275 14.027 10.5019 14.0094C10.7523 13.6055 8.71863 12.0522 8.28413 12.4089C8.22982 12.3956 8.17551 12.3838 8.12572 12.372L8.34448 12.148C8.39728 12.1112 8.44707 12.0699 8.49384 12.0227L10.606 9.86665C10.6301 9.8416 10.6543 9.81507 10.6754 9.78707L14.3581 6.12775C14.7941 5.68268 14.7533 4.95464 14.2675 4.50073C13.7817 4.04682 13.0365 4.04092 12.6005 4.48452L8.2087 8.86892C8.18456 8.89398 8.16042 8.9205 8.1393 8.9485L7.566 9.53506C7.5132 9.5719 7.46341 9.61316 7.41665 9.66033L5.3045 11.8164C5.26377 11.8577 5.22907 11.9019 5.19738 11.9476L4.76138 12.3941C4.39779 12.484 4.04627 12.6005 3.71134 12.7419L4.23787 10.6315C4.38723 10.0332 3.97988 9.42305 3.32663 9.26683C2.67488 9.11209 2.02464 9.47021 1.87528 10.0686L1.15112 12.9674C1.14207 13.0057 1.13452 13.0441 1.13 13.0838C1.11793 13.1177 1.10586 13.1531 1.09681 13.19L0.405834 15.9591C0.144833 16.5869 0 17.2663 0 17.9767L0 17.9752ZM2.18456 18.7666C2.18456 16.8213 3.79884 15.2444 5.79029 15.2444C7.78174 15.2444 9.39603 16.8213 9.39603 18.7666C9.39603 20.712 7.78174 22.2889 5.79029 22.2889C3.79884 22.2889 2.18456 20.712 2.18456 18.7666Z" fill="white"/>
</g>
<defs>
<clipPath id="clip0_1_4615">
<rect width="24" height="24" fill="white"/>
</clipPath>
</defs>
</svg>
