<svg width="40" height="40" viewBox="0 0 40 40" fill="none" xmlns="http://www.w3.org/2000/svg">
<rect width="40" height="40" rx="6" fill="#1B9BF1"/>
<g clip-path="url(#clip0_1_8495)">
<path d="M40 20C40 31.0453 31.0453 40 20 40C8.95473 40 0 31.0453 0 20C0 8.95473 8.95473 0 20 0C31.0453 0 40 8.95473 40 20Z" fill="#1B9BF1"/>
<path d="M16.3414 30.5485C25.2078 30.5485 30.0587 23.2021 30.0587 16.8311C30.0587 16.6213 30.055 16.4152 30.044 16.2091C30.9862 15.5282 31.8033 14.678 32.4511 13.7137C31.5861 14.0965 30.6586 14.3578 29.6833 14.4719C30.6807 13.8757 31.4426 12.9298 31.8033 11.8035C30.8721 12.3556 29.8416 12.7568 28.7411 12.9739C27.8614 12.0354 26.6101 11.4502 25.2225 11.4502C22.5615 11.4502 20.401 13.6107 20.401 16.2717C20.401 16.6508 20.4452 17.0188 20.5261 17.3722C16.518 17.1697 12.9663 15.2522 10.5887 12.3335C10.1728 13.0475 9.93725 13.872 9.93725 14.7553C9.93725 16.4263 10.7875 17.9058 12.083 18.7671C11.2917 18.7413 10.5482 18.5242 9.90045 18.1635C9.90045 18.1819 9.90045 18.204 9.90045 18.2261C9.90045 20.5595 11.564 22.5102 13.7687 22.9519C13.3638 23.0623 12.9369 23.1212 12.4989 23.1212C12.1897 23.1212 11.8843 23.0917 11.5935 23.0328C12.2081 24.9467 13.9858 26.3416 16.0985 26.3821C14.4496 27.674 12.3701 28.4469 10.1102 28.4469C9.7201 28.4469 9.33733 28.4248 8.96191 28.3806C11.0966 29.7461 13.6288 30.5448 16.3524 30.5448" fill="white"/>
</g>
<defs>
<clipPath id="clip0_1_8495">
<rect width="40" height="40" fill="white"/>
</clipPath>
</defs>
</svg>
